<?xml version="1.0" encoding="UTF-8"?>
<svg version="1.1" xmlns="http://www.w3.org/2000/svg" width="1200" height="1200">
<path d="M0 0 C396 0 792 0 1200 0 C1200 396 1200 792 1200 1200 C804 1200 408 1200 0 1200 C0 804 0 408 0 0 Z " fill="#7C0F89" transform="translate(0,0)"/>
<path d="M0 0 C5.94 0 11.88 0 18 0 C18 49.5 18 99 18 150 C13.71 150 9.42 150 5 150 C1.11756406 146.11756406 0.95611893 144.02846775 0.9375 138.75 C0.958125 137.5125 0.97875 136.275 1 135 C0.32195312 135.59167969 -0.35609375 136.18335938 -1.0546875 136.79296875 C-13.05916478 146.98513574 -23.49341074 151.56378394 -39.30859375 151.3125 C-48.48614581 150.53556438 -56.66541959 146.0621341 -62.65234375 139.0703125 C-73.5119627 123.98290296 -75.68734606 105.06173249 -74 87 C-72.37511845 77.49887441 -68.54248275 68.86876425 -63 61 C-62.4225 60.113125 -61.845 59.22625 -61.25 58.3125 C-51.76961019 48.56876603 -41.52289453 45.08194164 -28.1875 44.75 C-17.69311183 44.86128726 -11.01338692 47.35610646 -3 54 C-1.515 54.99 -1.515 54.99 0 56 C0 37.52 0 19.04 0 0 Z " fill="#E8E3D4" transform="translate(787,478)"/>
<path d="M0 0 C68 0 68 0 84.25 11.25 C92.64432629 19.64432629 97.44321615 29.86048146 97.60766602 41.75341797 C97.59276123 42.76291504 97.57785645 43.77241211 97.5625 44.8125 C97.55081787 45.86840332 97.53913574 46.92430664 97.52709961 48.01220703 C97.18148519 60.24526226 94.13269815 68.94982326 85.375 77.8515625 C70.79138759 91.04397505 54.16035724 92.05452654 35.4375 92.5625 C30.343125 92.706875 25.24875 92.85125 20 93 C19.67 110.82 19.34 128.64 19 147 C12.73 147 6.46 147 0 147 C0 98.49 0 49.98 0 0 Z " fill="#E9E5D5" transform="translate(387,481)"/>
<path d="M0 0 C10.2907353 9.64999141 15.31844252 21.57107222 15.99291992 35.53320312 C16.05189691 37.92015377 16.06838542 40.30375958 16.0703125 42.69140625 C16.08255859 43.48611328 16.09480469 44.28082031 16.10742188 45.09960938 C16.14226671 59.3743766 11.03397768 72.83866444 1.07421875 83.12109375 C-10.61706762 94.08314495 -24.29753836 95.96130169 -39.7421875 95.5625 C-51.62630056 94.94524327 -62.89323539 89.10011315 -70.9921875 80.44140625 C-82.48677454 66.27301838 -84.83526831 47.90296177 -83.1171875 30.25390625 C-80.91806098 17.77830596 -74.45765424 6.14348631 -64.70703125 -1.95703125 C-45.9925811 -14.88496212 -17.83896935 -14.71221273 0 0 Z " fill="#E7E3D4" transform="translate(911.1171875,533.74609375)"/>
<path d="M0 0 C1.12159012 -0.00637985 2.24318024 -0.0127597 3.39875793 -0.01933289 C4.61125717 -0.02044571 5.82375641 -0.02155853 7.07299805 -0.02270508 C8.31969772 -0.02603348 9.5663974 -0.02936188 10.85087585 -0.03279114 C13.49127769 -0.03785857 16.13157664 -0.04063159 18.77197266 -0.04003906 C21.47516567 -0.03995777 24.17818937 -0.04690199 26.88134766 -0.06054688 C30.77861719 -0.07887073 34.67568973 -0.08377592 38.57299805 -0.08520508 C39.77942459 -0.09239059 40.98585114 -0.09957611 42.22883606 -0.10697937 C43.92540596 -0.10236443 43.92540596 -0.10236443 45.65625 -0.09765625 C46.64647659 -0.09908127 47.63670319 -0.10050629 48.65693665 -0.10197449 C51.85580221 0.17404796 54.52365361 1.02387565 57.5222168 2.14526367 C57.5222168 2.80526367 57.5222168 3.46526367 57.5222168 4.14526367 C58.0790918 4.25741211 58.6359668 4.36956055 59.2097168 4.48510742 C67.22944576 6.55777386 71.64408019 11.40382476 75.8737793 18.37182617 C79.34411237 25.03786164 80.70392904 31.44542526 78.83862305 38.86401367 C75.71362422 48.30384415 71.43454195 53.55662824 62.6706543 58.19995117 C59.19120662 59.73090815 56.09491576 60.27048805 52.30444336 60.25878906 C51.48389465 60.25871353 50.66334595 60.258638 49.81793213 60.25856018 C48.94175232 60.2533989 48.06557251 60.24823761 47.1628418 60.24291992 C46.25846375 60.24150497 45.35408569 60.24009003 44.42230225 60.2386322 C41.53890653 60.23304278 38.65558897 60.2204922 35.7722168 60.20776367 C33.81518667 60.20274731 31.85815532 60.19818464 29.90112305 60.1940918 C25.10812426 60.1830768 20.31518377 60.16581942 15.5222168 60.14526367 C16.0172168 67.57026367 16.0172168 67.57026367 16.5222168 75.14526367 C12.5222168 76.14526367 12.5222168 76.14526367 10.62768555 75.28198242 C6.5795208 72.22318584 3.85137833 69.33541505 1.1472168 65.02026367 C-2.50172289 59.44247943 -6.34665405 58.15847026 -12.4777832 56.14526367 C-19.31955939 52.46123034 -24.54155766 46.11147729 -27.00512695 38.67651367 C-28.47112518 30.82554796 -29.19643939 20.79807509 -24.80200195 13.81323242 C-18.31209313 5.6386275 -10.76020438 0.04152063 0 0 Z " fill="#7E138A" transform="translate(171.477783203125,455.854736328125)"/>
<path d="M0 0 C7.25542493 5.9313637 12.5305352 13.83388253 14.3203125 23.15234375 C14.4091484 25.6391178 14.44667557 28.09681365 14.43383789 30.58300781 C14.43398392 31.32486328 14.43412994 32.06671875 14.4342804 32.83105469 C14.43358519 35.27672272 14.42581116 37.72231406 14.41796875 40.16796875 C14.41610318 41.86619017 14.41467993 43.56441213 14.41368103 45.26263428 C14.40986682 49.7276763 14.40004589 54.19268569 14.38897705 58.65771484 C14.37873937 63.21581582 14.37417836 67.77392208 14.36914062 72.33203125 C14.35842264 81.27214974 14.34135937 90.21224403 14.3203125 99.15234375 C12.38403481 99.26041506 10.44603494 99.33796625 8.5078125 99.40234375 C7.42886719 99.44875 6.34992188 99.49515625 5.23828125 99.54296875 C2.3203125 99.15234375 2.3203125 99.15234375 0.46557617 97.29785156 C-0.89727543 94.74472005 -1.17775686 92.78168955 -1.3671875 89.90234375 C-1.43292969 89.0103125 -1.49867187 88.11828125 -1.56640625 87.19921875 C-1.62248047 86.18601562 -1.62248047 86.18601562 -1.6796875 85.15234375 C-2.58589844 85.8278125 -3.49210937 86.50328125 -4.42578125 87.19921875 C-18.21830977 97.35344859 -29.06060869 101.49632782 -46.6796875 100.15234375 C-53.17156605 98.53147369 -59.27601912 95.79551064 -63.05078125 90.07421875 C-67.55999662 82.35873409 -68.80248275 74.9022244 -66.9921875 66.08984375 C-64.71515266 58.21253403 -59.90800074 53.97498506 -53.00390625 49.79296875 C-46.83594812 46.74885311 -40.28792444 44.98628106 -33.6796875 43.15234375 C-32.6896875 42.82234375 -31.6996875 42.49234375 -30.6796875 42.15234375 C-21.70157785 41.07815338 -12.70865931 41.03051355 -3.6796875 41.15234375 C-3.41650926 26.79455892 -3.41650926 26.79455892 -9.328125 14.38671875 C-15.40627007 8.89843586 -21.38290506 8.49861402 -29.3046875 8.66015625 C-37.36066375 9.22078935 -44.10694362 13.7705145 -50.6796875 18.15234375 C-54.0546875 18.71484375 -54.0546875 18.71484375 -57.6796875 18.15234375 C-59.77741416 16.05461709 -61.24732409 13.73983894 -62.6796875 11.15234375 C-61.17564182 6.80842233 -57.90191172 4.92358813 -54.1796875 2.58984375 C-53.55255859 2.19216797 -52.92542969 1.79449219 -52.27929688 1.38476562 C-47.29913802 -1.67251269 -42.44480678 -3.74201694 -36.6796875 -4.84765625 C-35.30876953 -5.11642578 -35.30876953 -5.11642578 -33.91015625 -5.390625 C-21.99558253 -7.07624184 -10.17703393 -7.0171094 0 0 Z " fill="#E7E2D4" transform="translate(1083.6796875,528.84765625)"/>
<path d="M0 0 C8.39620786 8.03115534 11.62469793 15.84934161 12.00697327 27.45579529 C12.00475266 28.75485306 12.00253204 30.05391083 12.00024414 31.39233398 C12.00039017 32.11512039 12.00053619 32.8379068 12.00068665 33.58259583 C11.99999574 35.94702261 11.99224227 38.3113684 11.984375 40.67578125 C11.98250789 42.32487444 11.98108537 43.97396819 11.98008728 45.62306213 C11.97628515 49.94503331 11.96647472 54.26697042 11.9553833 58.58892822 C11.94511946 63.00654642 11.94057904 67.42417017 11.93554688 71.84179688 C11.92485022 80.49610931 11.90780171 89.15039416 11.88671875 97.8046875 C10.11664161 97.88582856 8.34549777 97.94394255 6.57421875 97.9921875 C5.58808594 98.02699219 4.60195313 98.06179688 3.5859375 98.09765625 C0.88671875 97.8046875 0.88671875 97.8046875 -0.90942383 96.44799805 C-2.49864923 94.27864575 -3.09501725 92.20498883 -3.80078125 89.6171875 C-4.05214844 88.71613281 -4.30351563 87.81507813 -4.5625 86.88671875 C-4.74425781 86.19964844 -4.92601562 85.51257813 -5.11328125 84.8046875 C-5.80550781 85.39636719 -6.49773438 85.98804688 -7.2109375 86.59765625 C-19.11436315 96.21135839 -31.63194621 100.44745892 -47.11328125 98.8046875 C-55.00741613 97.22360183 -61.54341981 93.58068895 -66.11328125 86.8046875 C-69.73084536 79.03362386 -71.75580877 72.13938949 -69.05078125 63.7421875 C-64.20538416 52.72000042 -54.78291439 48.09536066 -44.11328125 43.8046875 C-32.1327397 39.49414694 -18.69589721 39.62391802 -6.11328125 38.8046875 C-5.29637212 24.51675532 -5.29637212 24.51675532 -11.609375 12.12109375 C-17.84457067 6.63225567 -25.37661551 7.25905859 -33.20019531 7.62109375 C-39.06468762 8.18389342 -43.47399874 11.37547997 -48.23828125 14.5546875 C-51.97286258 16.95017593 -54.62880676 17.66708644 -59.11328125 16.8046875 C-62.07512696 13.99872841 -63.26057459 11.7171063 -64.11328125 7.8046875 C-48.43471358 -7.50058094 -18.30207939 -14.9238051 0 0 Z " fill="#E8E3D4" transform="translate(564.11328125,530.1953125)"/>
<path d="M0 0 C8.44494679 6.872331 11.92092404 14.85958062 13.72265625 25.45703125 C14.10546139 31.24946206 14.07452269 37.01423933 14.015625 42.81640625 C14.01001621 44.4583497 14.0057522 46.10029823 14.00276184 47.74224854 C13.99141385 52.02317646 13.96203573 56.30378954 13.9286499 60.58459473 C13.89772989 64.9691136 13.88421007 69.35368432 13.86914062 73.73828125 C13.83715427 82.31134095 13.78608275 90.88414672 13.72265625 99.45703125 C10.74343032 99.48387112 7.7644433 99.50379162 4.78515625 99.51953125 C3.93501953 99.52791016 3.08488281 99.53628906 2.20898438 99.54492188 C1.40009766 99.54814453 0.59121094 99.55136719 -0.2421875 99.5546875 C-0.99105225 99.55992432 -1.73991699 99.56516113 -2.51147461 99.57055664 C-4.27734375 99.45703125 -4.27734375 99.45703125 -5.27734375 98.45703125 C-5.38630982 96.11626027 -5.43155982 93.80390435 -5.43505859 91.4621582 C-5.44013931 90.73037857 -5.44522003 89.99859894 -5.45045471 89.24464417 C-5.46118227 87.6497093 -5.46979303 86.05475916 -5.47657394 84.45980263 C-5.48833661 81.93342286 -5.50778461 79.4072161 -5.5296936 76.88090515 C-5.59138293 69.69580876 -5.64528649 62.51072715 -5.67871094 55.32543945 C-5.69968936 50.93452658 -5.73502454 46.54392399 -5.77946854 42.15318871 C-5.79361102 40.48074187 -5.80234702 38.80824008 -5.80552292 37.13573647 C-5.81044695 34.78978823 -5.83364437 32.44465817 -5.86083984 30.09887695 C-5.85783371 29.41136353 -5.85482758 28.7238501 -5.85173035 28.01550293 C-5.95438439 22.03486798 -7.7857062 18.18419052 -11.65234375 13.70703125 C-17.20684386 8.94603116 -22.63076382 9.02286699 -29.70703125 9.1484375 C-38.76492955 9.93134118 -45.69290729 14.36755243 -52.27734375 20.45703125 C-53.76568193 23.43370761 -53.45629372 26.48622277 -53.48266602 29.75244141 C-53.49751541 30.87941689 -53.49751541 30.87941689 -53.51266479 32.02915955 C-53.54430898 34.51810531 -53.5690487 37.00707018 -53.59375 39.49609375 C-53.61431701 41.21959943 -53.63531342 42.94310004 -53.65672302 44.66659546 C-53.71196982 49.20723365 -53.76136758 53.74791755 -53.80957031 58.28863525 C-53.85976631 62.92032957 -53.91546229 67.55195734 -53.97070312 72.18359375 C-54.07831661 81.27468489 -54.17924636 90.36583244 -54.27734375 99.45703125 C-60.54734375 99.45703125 -66.81734375 99.45703125 -73.27734375 99.45703125 C-73.27734375 65.13703125 -73.27734375 30.81703125 -73.27734375 -4.54296875 C-68.65734375 -4.54296875 -64.03734375 -4.54296875 -59.27734375 -4.54296875 C-56.59641684 -1.86204184 -56.89064118 -0.15129512 -56.65234375 3.58203125 C-56.57757812 4.67773438 -56.5028125 5.7734375 -56.42578125 6.90234375 C-56.35230469 8.16691406 -56.35230469 8.16691406 -56.27734375 9.45703125 C-55.59929688 8.86535156 -54.92125 8.27367187 -54.22265625 7.6640625 C-39.13797955 -5.14328766 -18.03710272 -12.22067851 0 0 Z " fill="#E7E1D3" transform="translate(677.27734375,528.54296875)"/>
<path d="M0 0 C0.5671875 0.37125 1.134375 0.7425 1.71875 1.125 C3.08 1.99125 3.08 1.99125 4.46875 2.875 C11.49953983 9.90578983 14.76358553 18.95799721 15.08203125 28.81640625 C15.0807239 30.77351027 15.06366942 32.73066408 15.03125 34.6875 C15.03447266 35.66396484 15.03769531 36.64042969 15.04101562 37.64648438 C14.96219428 48.35902129 13.1795519 58.89243595 5.89453125 67.20703125 C-1.93332092 74.51200135 -8.98078602 75.72839125 -19.5859375 75.46484375 C-26.85254636 74.79656154 -32.10455149 72.77695349 -37.15625 67.4375 C-40.38575337 63.34932868 -42.57485561 59.03391655 -44.28125 54.125 C-44.63703125 53.11824219 -44.9928125 52.11148438 -45.359375 51.07421875 C-48.59310683 39.40371339 -48.03433974 23.63987007 -42.8203125 12.6875 C-33.94709472 -2.0861824 -15.8892291 -8.80018842 0 0 Z " fill="#7C1089" transform="translate(893.28125,539.875)"/>
<path d="M0 0 C5.34680526 3.10597279 10.9589116 6.95384694 12.76812744 13.11639404 C13.08823498 16.13220595 13.16165794 19.05330113 13.1328125 22.0859375 C13.15140823 23.73138046 13.15140823 23.73138046 13.17037964 25.4100647 C13.18453252 27.7212572 13.17830309 30.03265452 13.15283203 32.34375 C13.12511325 35.86063156 13.1932253 39.36683141 13.26953125 42.8828125 C13.39657504 61.61371168 13.39657504 61.61371168 7.19921875 67.94140625 C4.5690918 69.96313477 4.5690918 69.96313477 2 71.5 C1.2572583 71.96656006 0.5145166 72.43312012 -0.25073242 72.91381836 C-7.87373138 77.16085331 -18.00249558 78.11098015 -26.4140625 75.8515625 C-32.731727 72.99763684 -36.61280136 68.17531166 -39.75 62.125 C-44.46238138 48.45909399 -45.90417187 30.48238762 -40.25390625 16.9375 C-39.84011719 16.133125 -39.42632813 15.32875 -39 14.5 C-38.57589844 13.675 -38.15179687 12.85 -37.71484375 12 C-30.08226169 -0.92648995 -13.89482495 -5.53355309 0 0 Z " fill="#7D1189" transform="translate(775,538.5)"/>
<path d="M0 0 C5.1975 -0.0825 10.395 -0.165 15.75 -0.25 C17.36358398 -0.28641602 18.97716797 -0.32283203 20.63964844 -0.36035156 C31.79083551 -0.44539137 42.35644611 0.79788274 51.3125 8.16796875 C56.13317594 13.40152665 58.61539154 19.94884488 59 27 C59.061875 27.66257812 59.12375 28.32515625 59.1875 29.0078125 C59.6309883 36.74113975 57.48624349 45.20813568 52.75 51.4375 C41.73037271 61.70578906 29.84009023 62.43761046 15.375 62.1875 C10.30125 62.125625 5.2275 62.06375 0 62 C0 41.54 0 21.08 0 0 Z " fill="#7D1189" transform="translate(406,496)"/>
<path d="M0 0 C1.18464844 -0.00515625 2.36929688 -0.0103125 3.58984375 -0.015625 C7.06332283 0.25006294 9.82335468 1.00379447 13.0625 2.25 C12.94880789 4.70933991 12.82207349 7.1667909 12.6875 9.625 C12.64109375 10.67300781 12.64109375 10.67300781 12.59375 11.7421875 C12.2890625 17.0234375 12.2890625 17.0234375 10.0625 19.25 C8.14233398 19.38183594 8.14233398 19.38183594 5.80859375 19.234375 C-5.08813198 18.33857117 -5.08813198 18.33857117 -15.25 21.4375 C-22.31746403 28.00455056 -26.24291119 36.34190408 -26.82397461 45.8762207 C-26.88876267 48.64448305 -26.86950768 51.40716039 -26.83984375 54.17578125 C-26.84925431 55.65937981 -26.86172766 57.14296176 -26.87709045 58.62651062 C-26.90899907 62.48515729 -26.89999199 66.34260236 -26.88171387 70.20129395 C-26.87046587 74.15711057 -26.8989456 78.11263424 -26.92382812 82.06835938 C-26.96670911 89.79591325 -26.96257443 97.52231307 -26.9375 105.25 C-33.2075 105.25 -39.4775 105.25 -45.9375 105.25 C-45.9375 70.93 -45.9375 36.61 -45.9375 1.25 C-41.3175 1.25 -36.6975 1.25 -31.9375 1.25 C-28.33176104 4.85573896 -28.34120896 6.48044028 -27.75 11.4375 C-27.59144531 12.70980469 -27.43289063 13.98210938 -27.26953125 15.29296875 C-27.10517578 16.75669922 -27.10517578 16.75669922 -26.9375 18.25 C-26.525 17.68152344 -26.1125 17.11304688 -25.6875 16.52734375 C-18.64643959 7.11306879 -12.36234762 -0.05369098 0 0 Z " fill="#E6E0D3" transform="translate(995.9375,522.75)"/>
<path d="M0 0 C157.08 0 314.16 0 476 0 C476 1.65 476 3.3 476 5 C318.92 5 161.84 5 0 5 C0 3.35 0 1.7 0 0 Z " fill="#B48613" transform="translate(163,670)"/>
<path d="M0 0 C1.62715499 19.40570069 1.62715499 19.40570069 -1.9453125 25.1015625 C-4.54297964 27.15904198 -6.99588797 28.61118576 -10 30 C-10.77214844 30.42925781 -11.54429687 30.85851562 -12.33984375 31.30078125 C-17.91172504 34.32018061 -22.57559705 35.22768264 -28.8125 35.3125 C-29.86147461 35.35600586 -29.86147461 35.35600586 -30.93164062 35.40039062 C-36.08067507 35.46300751 -38.8881385 34.33394176 -43 31 C-46.6350051 26.86361489 -47.52941829 22.81806888 -47.4765625 17.41796875 C-46.57099181 12.82331092 -43.45010122 9.97228679 -40 7 C-28.06997635 -0.68823746 -13.60206664 -0.14856626 0 0 Z " fill="#7E138A" transform="translate(559,581)"/>
<path d="M0 0 C0.23413602 3.5196947 0.37497976 7.03737584 0.5 10.5625 C0.60054687 12.0484668 0.60054687 12.0484668 0.703125 13.56445312 C0.89558824 20.80588235 0.89558824 20.80588235 -1.63183594 24.17578125 C-5.140104 27.32511759 -8.97519726 29.87549549 -13.25 31.875 C-14.46429687 32.45894531 -14.46429687 32.45894531 -15.703125 33.0546875 C-20.30643356 34.94924646 -24.38194272 35.21782127 -29.375 35.3125 C-30.66148438 35.34988281 -31.94796875 35.38726563 -33.2734375 35.42578125 C-38.78643103 34.79588996 -41.76722005 32.39498783 -45.375 28.3125 C-47.47835551 24.0248907 -47.8182405 20.69012081 -47 16 C-43.99333884 9.74614479 -39.28223987 6.24758607 -32.9375 3.8359375 C-21.78548849 0.24767454 -11.57587327 -0.13565476 0 0 Z " fill="#7D128A" transform="translate(1080,581)"/>
<path d="M0 0 C7.13293196 3.16677583 11.16932973 9.95961497 14 17 C16.41977583 25.32402886 14.67558715 32.33966416 11 40 C7.16048662 46.22024508 1.14615035 50.4815003 -5.8706665 52.55198669 C-8.0544592 53.01145826 -9.98851223 53.12040583 -12.21777344 53.11352539 C-13.03832214 53.11344986 -13.85887085 53.11337433 -14.70428467 53.11329651 C-15.58046448 53.10813522 -16.45664429 53.10297394 -17.359375 53.09765625 C-18.71594208 53.09553383 -18.71594208 53.09553383 -20.09991455 53.09336853 C-22.98331027 53.08777911 -25.86662782 53.07522853 -28.75 53.0625 C-30.70703013 53.05748363 -32.66406147 53.05292096 -34.62109375 53.04882812 C-39.41409253 53.03781313 -44.20703302 53.02055574 -49 53 C-48.67 57.95 -48.34 62.9 -48 68 C-52 69 -52 69 -53.89453125 68.13671875 C-57.95853416 65.06595484 -60.74164091 62.11730755 -63.5 57.8125 C-66.74995712 52.82122636 -69.26801889 51.40785501 -75 50 C-71.37673261 48.7922442 -70.35853631 49.45688872 -67 51 C-67 50.01 -67 49.02 -67 48 C-69.31 47.67 -71.62 47.34 -74 47 C-74 46.67 -74 46.34 -74 46 C-71.36 46.33 -68.72 46.66 -66 47 C-65.67128906 47.96099609 -65.67128906 47.96099609 -65.3359375 48.94140625 C-63.18784152 54.80064365 -60.8041053 59.85474342 -56 64 C-55.34 64 -54.68 64 -54 64 C-53.505 64.99 -53.505 64.99 -53 66 C-50.97536745 66.65213292 -50.97536745 66.65213292 -49 67 C-49.144375 66.39671875 -49.28875 65.7934375 -49.4375 65.171875 C-49.623125 64.37265625 -49.80875 63.5734375 -50 62.75 C-50.185625 61.96109375 -50.37125 61.1721875 -50.5625 60.359375 C-51 58 -51 58 -51 54 C-51.66 53.67 -52.32 53.34 -53 53 C-53 52.34 -53 51.68 -53 51 C-53.33 54.63 -53.66 58.26 -54 62 C-55.84022746 58.31954508 -56.2580902 57.21254016 -56.1875 53.375 C-56.18105469 52.59898437 -56.17460937 51.82296875 -56.16796875 51.0234375 C-56 49 -56 49 -55 47 C-53.81035645 46.98541748 -52.62071289 46.97083496 -51.39501953 46.95581055 C-46.94046417 46.8974143 -42.48639266 46.82018712 -38.03222656 46.73754883 C-36.11205963 46.70449254 -34.19180003 46.67640188 -32.27148438 46.65356445 C-29.49569561 46.61966059 -26.72074148 46.56733091 -23.9453125 46.51171875 C-23.1001004 46.50532883 -22.25488831 46.4989389 -21.38406372 46.49235535 C-12.42200735 46.27604351 -4.26004174 44.41303625 2.3046875 38.07421875 C7.19753864 32.08780411 8.6918508 25.28858458 8.390625 17.671875 C7.40992575 10.96389214 3.89133217 5.4200698 0 0 Z " fill="#8C3094" transform="translate(236,463)"/>
<path d="M0 0 C0.495 1.98 0.495 1.98 1 4 C-0.24735567 4.6509259 -1.49801832 5.29551669 -2.75 5.9375 C-3.44609375 6.29714844 -4.1421875 6.65679688 -4.859375 7.02734375 C-8.29349968 8.58773982 -11.36730864 9.12541991 -15.12597656 9.11352539 C-15.92650452 9.11344986 -16.72703247 9.11337433 -17.55181885 9.11329651 C-18.83327789 9.10555458 -18.83327789 9.10555458 -20.140625 9.09765625 C-21.02280701 9.0962413 -21.90498901 9.09482635 -22.81390381 9.09336853 C-25.62597065 9.08778001 -28.4379573 9.07522961 -31.25 9.0625 C-33.15885302 9.05748352 -35.06770728 9.05292087 -36.9765625 9.04882812 C-41.65107247 9.03781434 -46.32552265 9.02055758 -51 9 C-51 10.98 -51 12.96 -51 15 C-51.12375 14.360625 -51.2475 13.72125 -51.375 13.0625 C-51.58125 12.381875 -51.7875 11.70125 -52 11 C-52.66 10.67 -53.32 10.34 -54 10 C-54 9.34 -54 8.68 -54 8 C-54.33 11.63 -54.66 15.26 -55 19 C-56.84022746 15.31954508 -57.2580902 14.21254016 -57.1875 10.375 C-57.17783203 9.21097656 -57.17783203 9.21097656 -57.16796875 8.0234375 C-57 6 -57 6 -56 4 C-54.81035645 3.98541748 -53.62071289 3.97083496 -52.39501953 3.95581055 C-47.94046417 3.8974143 -43.48639266 3.82018712 -39.03222656 3.73754883 C-37.11205963 3.70449254 -35.19180003 3.67640188 -33.27148438 3.65356445 C-30.49569561 3.61966059 -27.72074148 3.56733091 -24.9453125 3.51171875 C-24.1001004 3.50532883 -23.25488831 3.4989389 -22.38406372 3.49235535 C-16.9883214 3.36212152 -12.42301702 2.42666212 -7.32614136 0.63825989 C-4.79158158 -0.05718703 -2.61593163 -0.10876051 0 0 Z " fill="#A866A8" transform="translate(237,506)"/>
<path d="M0 0 C0 2 0 4 0 6 C0.495 6.99 0.495 6.99 1 8 C2.32 7.01 3.64 6.02 5 5 C3.56767675 8.5198582 1.91637039 10.06793624 -1.25 12.125 C-1.99765625 12.62257813 -2.7453125 13.12015625 -3.515625 13.6328125 C-9.54431582 16.95048827 -14.83958967 17.27536851 -21.5546875 17.1953125 C-22.45623566 17.1924826 -23.35778381 17.18965271 -24.28665161 17.18673706 C-27.14957276 17.17559439 -30.01217434 17.1505008 -32.875 17.125 C-34.82291213 17.11496255 -36.77082919 17.10583804 -38.71875 17.09765625 C-43.4792887 17.07567443 -48.23959027 17.0411855 -53 17 C-52.67 21.95 -52.34 26.9 -52 32 C-56 33 -56 33 -57.89453125 32.13671875 C-61.95853416 29.06595484 -64.74164091 26.11730755 -67.5 21.8125 C-70.74995712 16.82122636 -73.26801889 15.40785501 -79 14 C-75.37673261 12.7922442 -74.35853631 13.45688872 -71 15 C-71 14.01 -71 13.02 -71 12 C-73.31 11.67 -75.62 11.34 -78 11 C-78 10.67 -78 10.34 -78 10 C-75.36 10.33 -72.72 10.66 -70 11 C-69.78085938 11.64066406 -69.56171875 12.28132813 -69.3359375 12.94140625 C-67.18784152 18.80064365 -64.8041053 23.85474342 -60 28 C-59.34 28 -58.68 28 -58 28 C-57.67 28.66 -57.34 29.32 -57 30 C-54.97536745 30.65213292 -54.97536745 30.65213292 -53 31 C-53.33 30.01 -53.66 29.02 -54 28 C-54.068991 25.93854893 -54.08467727 23.87498599 -54.0625 21.8125 C-54.05347656 20.72582031 -54.04445312 19.63914062 -54.03515625 18.51953125 C-54.02355469 17.68808594 -54.01195312 16.85664062 -54 16 C-52.26882935 15.98598145 -52.26882935 15.98598145 -50.50268555 15.97167969 C-46.17288254 15.93145519 -41.84376611 15.86561031 -37.5144043 15.79248047 C-35.64958596 15.76445746 -33.78465296 15.7431512 -31.91967773 15.72900391 C-17.02322755 15.68451075 -17.02322755 15.68451075 -3 11 C-3 10.01 -3 9.02 -3 8 C-3.99 7.34 -4.98 6.68 -6 6 C-4.02 4.02 -2.04 2.04 0 0 Z " fill="#CCADC1" transform="translate(240,499)"/>
<path d="M0 0 C0.66 0 1.32 0 2 0 C2 1.65 2 3.3 2 5 C3.11375 4.79375 4.2275 4.5875 5.375 4.375 C7.169375 4.189375 7.169375 4.189375 9 4 C11 6 11 6 11.1953125 8.3828125 C11.17210937 9.28773438 11.14890625 10.19265625 11.125 11.125 C11.10695313 12.03507813 11.08890625 12.94515625 11.0703125 13.8828125 C11.04710937 14.58148437 11.02390625 15.28015625 11 16 C10.34 16 9.68 16 9 16 C8.67 13.03 8.34 10.06 8 7 C6.35 7.33 4.7 7.66 3 8 C2.67 10.64 2.34 13.28 2 16 C-1.28453 16 -3.84698314 15.76695005 -7 15 C-8.63717481 13.36282519 -8.39672144 11.37517442 -8.625 9.125 C-8.72039063 8.24070312 -8.81578125 7.35640625 -8.9140625 6.4453125 C-9 4 -9 4 -8 1 C-7.34 1 -6.68 1 -6 1 C-6 1.99 -6 2.98 -6 4 C-4.35 4.33 -2.7 4.66 -1 5 C-0.67 3.35 -0.34 1.7 0 0 Z " fill="#80188C" transform="translate(823,650)"/>
<path d="M0 0 C1.32 0 2.64 0 4 0 C4 3.96 4 7.92 4 12 C2.68 12 1.36 12 0 12 C-0.845625 12.061875 -1.69125 12.12375 -2.5625 12.1875 C-5 12 -5 12 -6.8125 10.875 C-8.55198782 8.12844028 -8.39769128 6.18153026 -8 3 C-5.85269126 -0.39048748 -3.807539 -0.27860041 0 0 Z " fill="#DCCCCC" transform="translate(1057,654)"/>
<path d="M0 0 C3.0625 0.3125 3.0625 0.3125 4.9375 1.4375 C6.59104531 4.19340884 6.45615568 6.16325452 6.0625 9.3125 C4.9375 11.1875 4.9375 11.1875 3.0625 12.3125 C0.0625 12.75 0.0625 12.75 -2.9375 12.3125 C-4.875 10.6875 -4.875 10.6875 -5.9375 8.3125 C-5.64908355 3.50555913 -5.26034464 0.55961113 0 0 Z " fill="#DAC7CA" transform="translate(1082.9375,653.6875)"/>
<path d="M0 0 C3.0625 0.3125 3.0625 0.3125 4.9375 1.4375 C6.59104531 4.19340884 6.45615568 6.16325452 6.0625 9.3125 C4.9375 11.1875 4.9375 11.1875 3.0625 12.3125 C0.0625 12.75 0.0625 12.75 -2.9375 12.3125 C-4.875 10.6875 -4.875 10.6875 -5.9375 8.3125 C-5.64908355 3.50555913 -5.26034464 0.55961113 0 0 Z " fill="#DAC7CA" transform="translate(979.9375,653.6875)"/>
<path d="M0 0 C3.0625 0.3125 3.0625 0.3125 4.9375 1.4375 C6.59104531 4.19340884 6.45615568 6.16325452 6.0625 9.3125 C4.9375 11.1875 4.9375 11.1875 3.0625 12.3125 C0.0625 12.75 0.0625 12.75 -2.9375 12.3125 C-4.875 10.6875 -4.875 10.6875 -5.9375 8.3125 C-5.64908355 3.50555913 -5.26034464 0.55961113 0 0 Z " fill="#DAC7CA" transform="translate(874.9375,653.6875)"/>
<path d="M0 0 C3.0625 0.3125 3.0625 0.3125 4.9375 1.4375 C6.59104531 4.19340884 6.45615568 6.16325452 6.0625 9.3125 C4.9375 11.1875 4.9375 11.1875 3.0625 12.3125 C0.0625 12.75 0.0625 12.75 -2.9375 12.3125 C-4.875 10.6875 -4.875 10.6875 -5.9375 8.3125 C-5.64908355 3.50555913 -5.26034464 0.55961113 0 0 Z " fill="#DAC7CA" transform="translate(774.9375,653.6875)"/>
<path d="M0 0 C1.39935013 2.79870027 1.25265405 4.90498792 1 8 C-0.0625 9.9375 -0.0625 9.9375 -2 11 C-5.625 10.8125 -5.625 10.8125 -9 10 C-10.39935013 7.20129973 -10.25265405 5.09501208 -10 2 C-7.65446208 -2.27715738 -4.20919664 -1.01332512 0 0 Z " fill="#DAC8CB" transform="translate(940,655)"/>
<path d="M0 0 C6.0546875 -0.1953125 6.0546875 -0.1953125 8 0 C10 2 10 2 10.3125 4.5 C10.1578125 5.7375 10.1578125 5.7375 10 7 C6.77208445 9.1519437 5.71599191 9.20086443 2 9 C2 10.98 2 12.96 2 15 C1.34 15 0.68 15 0 15 C0 10.05 0 5.1 0 0 Z " fill="#DDCDCC" transform="translate(857,651)"/>
<path d="M0 0 C3.5 0.1875 3.5 0.1875 7 1 C9 4 9 4 9 7 C6.03 7 3.06 7 0 7 C0.33 7.66 0.66 8.32 1 9 C4.465 8.505 4.465 8.505 8 8 C7.34 9.32 6.68 10.64 6 12 C-0.875 11.125 -0.875 11.125 -2 10 C-2.27314815 4.26388889 -2.27314815 4.26388889 -2 2 C-1.34 1.34 -0.68 0.68 0 0 Z " fill="#D6C1C8" transform="translate(904,654)"/>
<path d="M0 0 C3.5 0.1875 3.5 0.1875 7 1 C9 4 9 4 9 7 C6.03 7 3.06 7 0 7 C0.33 7.66 0.66 8.32 1 9 C4.465 8.505 4.465 8.505 8 8 C7.34 9.32 6.68 10.64 6 12 C-0.875 11.125 -0.875 11.125 -2 10 C-2.27314815 4.26388889 -2.27314815 4.26388889 -2 2 C-1.34 1.34 -0.68 0.68 0 0 Z " fill="#D6C1C8" transform="translate(839,654)"/>
<path d="M0 0 C0.99 0 1.98 0 3 0 C3.33 3.96 3.66 7.92 4 12 C5.32 12 6.64 12 8 12 C8.33 8.04 8.66 4.08 9 0 C9.99 0 10.98 0 12 0 C12.08142927 1.7492214 12.13938541 3.49954542 12.1875 5.25 C12.22230469 6.22453125 12.25710938 7.1990625 12.29296875 8.203125 C11.955889 11.42111304 11.27459928 12.73070281 9 15 C6 15.5 6 15.5 3 15 C0.72540072 12.73070281 0.044111 11.42111304 -0.29296875 8.203125 C-0.25816406 7.22859375 -0.22335937 6.2540625 -0.1875 5.25 C-0.16042969 4.26515625 -0.13335938 3.2803125 -0.10546875 2.265625 C-0.07066406 1.51796875 -0.03585937 0.7703125 0 0 Z " fill="#CCACC1" transform="translate(735,651)"/>
<path d="M0 0 C1.8125 1.25 1.8125 1.25 3 3 C3 4.32 3 5.64 3 7 C0.03 7 -2.94 7 -6 7 C-5.67 7.66 -5.34 8.32 -5 9 C-2.47266765 9.65555119 -2.47266765 9.65555119 0 10 C0 9.34 0 8.68 0 8 C0.99 8.33 1.98 8.66 3 9 C1.22510401 11.24197388 0.37824511 11.94326323 -2.5 12.375 C-5 12 -5 12 -6.8125 10.875 C-8.55198782 8.12844028 -8.39769128 6.18153026 -8 3 C-5.90534242 -0.30735407 -3.75951639 -0.56392746 0 0 Z " fill="#DBC9CB" transform="translate(1023,654)"/>
<path d="M0 0 C0.66 0 1.32 0 2 0 C2.66 2.31 3.32 4.62 4 7 C4.99 4.69 5.98 2.38 7 0 C7.99 0.33 8.98 0.66 10 1 C11.1875 4.0625 11.1875 4.0625 12 7 C12.66 4.69 13.32 2.38 14 0 C14.66 0 15.32 0 16 0 C15.69106068 1.6256807 15.3777305 3.25052748 15.0625 4.875 C14.88847656 5.77992188 14.71445312 6.68484375 14.53515625 7.6171875 C14 10 14 10 13 12 C12.34 12 11.68 12 11 12 C9 9 9 9 9 5 C8.34 5 7.68 5 7 5 C6.855625 5.78375 6.71125 6.5675 6.5625 7.375 C6 10 6 10 5 12 C4.34 12 3.68 12 3 12 C2.49440092 10.56445975 1.9957251 9.1264798 1.5 7.6875 C1.2215625 6.88699219 0.943125 6.08648438 0.65625 5.26171875 C0 3 0 3 0 0 Z " fill="#D5BFC7" transform="translate(883,654)"/>
<path d="M0 0 C0.33 0.66 0.66 1.32 1 2 C0.690625 2.804375 0.38125 3.60875 0.0625 4.4375 C-1.97980483 11.28522796 -1.89034962 18.46554557 0.93359375 25.08203125 C2.59263763 28.06587939 4.63359054 30.69844879 6.79296875 33.3359375 C8 35 8 35 8 37 C9.29233607 38.37310707 10.62437146 39.71034824 12 41 C5.91696398 39.38978458 2.83243756 35.06158028 -0.26953125 29.87890625 C-2.81249768 24.55035821 -3.37488894 19.56816596 -3.4375 13.75 C-3.45272705 12.73981812 -3.45272705 12.73981812 -3.46826172 11.70922852 C-3.38753205 7.11048023 -2.31102791 3.9477506 0 0 Z " fill="#CEB0C2" transform="translate(147,470)"/>
<path d="M0 0 C1.423125 -0.061875 2.84625 -0.12375 4.3125 -0.1875 C5.51326172 -0.23970703 5.51326172 -0.23970703 6.73828125 -0.29296875 C9 0 9 0 10.78125 1.21875 C12.35672932 3.52137362 12.30765272 4.92398744 12.1875 7.6875 C12.16042969 8.49574219 12.13335938 9.30398438 12.10546875 10.13671875 C12.07066406 10.75160156 12.03585937 11.36648438 12 12 C11.01 12 10.02 12 9 12 C8.67 9.03 8.34 6.06 8 3 C6.68 3 5.36 3 4 3 C3.67 5.97 3.34 8.94 3 12 C2.01 12 1.02 12 0 12 C0 8.04 0 4.08 0 0 Z " fill="#CBAAC0" transform="translate(1092,654)"/>
<path d="M0 0 C1.423125 -0.061875 2.84625 -0.12375 4.3125 -0.1875 C5.51326172 -0.23970703 5.51326172 -0.23970703 6.73828125 -0.29296875 C9 0 9 0 10.78125 1.21875 C12.35672932 3.52137362 12.30765272 4.92398744 12.1875 7.6875 C12.16042969 8.49574219 12.13335938 9.30398438 12.10546875 10.13671875 C12.07066406 10.75160156 12.03585937 11.36648438 12 12 C11.01 12 10.02 12 9 12 C8.67 9.03 8.34 6.06 8 3 C6.68 3 5.36 3 4 3 C3.67 5.97 3.34 8.94 3 12 C2.01 12 1.02 12 0 12 C0 8.04 0 4.08 0 0 Z " fill="#CBAAC0" transform="translate(989,654)"/>
<path d="M0 0 C1.423125 -0.061875 2.84625 -0.12375 4.3125 -0.1875 C5.51326172 -0.23970703 5.51326172 -0.23970703 6.73828125 -0.29296875 C9 0 9 0 10.78125 1.21875 C12.35672932 3.52137362 12.30765272 4.92398744 12.1875 7.6875 C12.16042969 8.49574219 12.13335938 9.30398438 12.10546875 10.13671875 C12.07066406 10.75160156 12.03585937 11.36648438 12 12 C11.01 12 10.02 12 9 12 C8.67 9.03 8.34 6.06 8 3 C6.68 3 5.36 3 4 3 C3.67 5.97 3.34 8.94 3 12 C2.01 12 1.02 12 0 12 C0 8.04 0 4.08 0 0 Z " fill="#CBAAC0" transform="translate(750,654)"/>
<path d="M0 0 C2.64 0.33 5.28 0.66 8 1 C8.32871094 1.96099609 8.32871094 1.96099609 8.6640625 2.94140625 C10.81215848 8.80064365 13.1958947 13.85474342 18 18 C18.66 18 19.32 18 20 18 C20.33 18.66 20.66 19.32 21 20 C23.02463255 20.65213292 23.02463255 20.65213292 25 21 C24.505 18.525 24.505 18.525 24 16 C24.66 15.67 25.32 15.34 26 15 C26 17.31 26 19.62 26 22 C23.59729832 22.8790372 22.47903733 23.21828299 20.10546875 22.13671875 C16.04146584 19.06595484 13.25835909 16.11730755 10.5 11.8125 C7.25004288 6.82122636 4.73198111 5.40785501 -1 4 C2.62326739 2.7922442 3.64146369 3.45688872 7 5 C7 4.01 7 3.02 7 2 C4.69 1.67 2.38 1.34 0 1 C0 0.67 0 0.34 0 0 Z " fill="#C49CBB" transform="translate(162,509)"/>
<path d="M0 0 C2.375 1.375 2.375 1.375 4 3 C4 3.66 4 4.32 4 5 C3.484375 4.67 2.96875 4.34 2.4375 4 C-0.78026512 2.67989123 -3.5570528 2.86757895 -7 3 C-7.26932521 7.65052872 -7.26932521 7.65052872 -6 12 C-2.05272412 12.17942163 0.5980513 12.09350689 4 10 C2.25 13.875 2.25 13.875 0 15 C-2.875 15.375 -2.875 15.375 -6 15 C-8.4375 12.9375 -8.4375 12.9375 -10 10 C-9.93931504 6.48027215 -9.66225706 4.08052467 -7.8125 1.0625 C-5.07756873 -0.54073557 -3.1096607 -0.38077478 0 0 Z " fill="#DAC9CB" transform="translate(967,651)"/>
<path d="M0 0 C0.66 0 1.32 0 2 0 C2 1.65 2 3.3 2 5 C3.11375 4.79375 4.2275 4.5875 5.375 4.375 C6.57125 4.25125 7.7675 4.1275 9 4 C11 6 11 6 11.1953125 8.3828125 C11.16050781 9.74019531 11.16050781 9.74019531 11.125 11.125 C11.10695313 12.03507813 11.08890625 12.94515625 11.0703125 13.8828125 C11.04710937 14.58148437 11.02390625 15.28015625 11 16 C10.34 16 9.68 16 9 16 C8.67 13.03 8.34 10.06 8 7 C6.35 7.33 4.7 7.66 3 8 C2.67 10.64 2.34 13.28 2 16 C1.34 16 0.68 16 0 16 C0 10.72 0 5.44 0 0 Z " fill="#D9C7CA" transform="translate(823,650)"/>
<path d="M0 0 C0.66 0 1.32 0 2 0 C2.33 2.31 2.66 4.62 3 7 C3.99 6.01 4.98 5.02 6 4 C6.99 4.33 7.98 4.66 9 5 C7.68 6.32 6.36 7.64 5 9 C6.20381448 11.49361571 7.45428722 13.68143083 9 16 C6.13275314 15.42655063 5.1385485 15.1385485 3 13 C2.67 13.99 2.34 14.98 2 16 C1.34 16 0.68 16 0 16 C0 10.72 0 5.44 0 0 Z " fill="#DAC7CA" transform="translate(798,650)"/>
<path d="M0 0 C1.2065625 0.0309375 1.2065625 0.0309375 2.4375 0.0625 C3.0975 1.3825 3.7575 2.7025 4.4375 4.0625 C3.7775 4.0625 3.1175 4.0625 2.4375 4.0625 C2.4375 3.4025 2.4375 2.7425 2.4375 2.0625 C1.1175 2.0625 -0.2025 2.0625 -1.5625 2.0625 C-1.5625 3.0525 -1.5625 4.0425 -1.5625 5.0625 C0.0875 5.3925 1.7375 5.7225 3.4375 6.0625 C3.7675 7.7125 4.0975 9.3625 4.4375 11.0625 C2.1275 11.3925 -0.1825 11.7225 -2.5625 12.0625 C-3.2225 10.7425 -3.8825 9.4225 -4.5625 8.0625 C-2.2525 8.7225 0.0575 9.3825 2.4375 10.0625 C0.93086217 7.04922434 -1.59416411 6.45193382 -4.5625 5.0625 C-3.43829114 0.08386076 -3.43829114 0.08386076 0 0 Z " fill="#D1B7C4" transform="translate(1041.5625,653.9375)"/>
<path d="M0 0 C3.2188892 3.49227431 3.62878842 6.60839611 4.1875 11.25 C4.42533203 13.14492188 4.42533203 13.14492188 4.66796875 15.078125 C4.83232422 16.52445313 4.83232422 16.52445313 5 18 C3.35 17.67 1.7 17.34 0 17 C-1.23104155 13.31599416 -0.90767252 10.08525024 -0.5625 6.25 C-0.46066406 5.07953125 -0.35882813 3.9090625 -0.25390625 2.703125 C-0.17011719 1.81109375 -0.08632812 0.9190625 0 0 Z " fill="#872591" transform="translate(182,512)"/>
<path d="M0 0 C4.5228636 2.03682284 7.45417287 4.73187769 10 9 C10.78059459 12.18894612 10.75475407 15.1702926 10.625 18.4375 C10.63144531 19.24509766 10.63789063 20.05269531 10.64453125 20.88476562 C10.53829413 26.87750504 8.98506565 30.82073271 6 36 C5.67 35.34 5.34 34.68 5 34 C5.474375 32.865625 5.94875 31.73125 6.4375 30.5625 C9.09005292 23.78375365 9.10957616 16.9012875 6.25 10.1875 C4.43800586 6.58939735 2.34791121 3.2703049 0 0 Z " fill="#CFB3C3" transform="translate(236,463)"/>
<path d="M0 0 C2.5 0.125 2.5 0.125 3.5 1.125 C3.625 4.125 3.625 4.125 3.5 7.125 C2.5 8.125 2.5 8.125 0.0625 8.3125 C-2.5 8.125 -2.5 8.125 -4.5 6.125 C-3.77607362 0.18880368 -3.77607362 0.18880368 0 0 Z " fill="#831C8D" transform="translate(1083.5,655.875)"/>
<path d="M0 0 C2.5625 0.1875 2.5625 0.1875 4.5625 2.1875 C4.00694444 6.74305556 4.00694444 6.74305556 2.5625 8.1875 C0.0625 8.3125 0.0625 8.3125 -2.4375 8.1875 C-3.4375 7.1875 -3.4375 7.1875 -3.5625 4.1875 C-3.39891479 0.26145498 -3.39891479 0.26145498 0 0 Z " fill="#831D8E" transform="translate(1054.4375,655.8125)"/>
<path d="M0 0 C2.5 0.125 2.5 0.125 3.5 1.125 C3.625 4.125 3.625 4.125 3.5 7.125 C2.5 8.125 2.5 8.125 0.0625 8.3125 C-2.5 8.125 -2.5 8.125 -4.5 6.125 C-3.77607362 0.18880368 -3.77607362 0.18880368 0 0 Z " fill="#831C8D" transform="translate(980.5,655.875)"/>
<path d="M0 0 C2.5 0.125 2.5 0.125 3.5 1.125 C3.625 4.125 3.625 4.125 3.5 7.125 C2.5 8.125 2.5 8.125 0.0625 8.3125 C-2.5 8.125 -2.5 8.125 -4.5 6.125 C-3.77607362 0.18880368 -3.77607362 0.18880368 0 0 Z " fill="#831C8D" transform="translate(875.5,655.875)"/>
<path d="M0 0 C2.5 0.125 2.5 0.125 3.5 1.125 C3.625 4.125 3.625 4.125 3.5 7.125 C2.5 8.125 2.5 8.125 0.0625 8.3125 C-2.5 8.125 -2.5 8.125 -4.5 6.125 C-3.77607362 0.18880368 -3.77607362 0.18880368 0 0 Z " fill="#831C8D" transform="translate(775.5,655.875)"/>
<path d="M0 0 C0.66 1.32 1.32 2.64 2 4 C-0.31 3.67 -2.62 3.34 -5 3 C-5 4.98 -5 6.96 -5 9 C-3.35 9.33 -1.7 9.66 0 10 C0 9.34 0 8.68 0 8 C0.66 8 1.32 8 2 8 C1.34 9.32 0.68 10.64 0 12 C-6.875 11.125 -6.875 11.125 -8 10 C-8.37086093 4.1589404 -8.37086093 4.1589404 -8 2 C-4.77208445 -0.1519437 -3.71599191 -0.20086443 0 0 Z " fill="#DBCACB" transform="translate(792,654)"/>
<path d="M0 0 C2.5 0.125 2.5 0.125 3.5 1.125 C3.625 4.125 3.625 4.125 3.5 7.125 C2.5 8.125 2.5 8.125 0 8.25 C-2.5 8.125 -2.5 8.125 -3.5 7.125 C-3.625 4.125 -3.625 4.125 -3.5 1.125 C-2.5 0.125 -2.5 0.125 0 0 Z " fill="#7F168B" transform="translate(935.5,655.875)"/>
<path d="M0 0 C4.18780665 4.18780665 4.79454355 7.94543553 5.375 13.75 C5.2489009 19.09870332 3.30244583 24.21864351 1 29 C0.34 29.33 -0.32 29.66 -1 30 C-0.52140759 28.39566191 -0.04210442 26.79153584 0.4375 25.1875 C0.70433594 24.29417969 0.97117188 23.40085937 1.24609375 22.48046875 C1.80387873 20.64526945 2.39344575 18.81966274 3 17 C2.34 16.67 1.68 16.34 1 16 C1.66 16 2.32 16 3 16 C2.01 10.72 1.02 5.44 0 0 Z " fill="#C095B9" transform="translate(246,474)"/>
<path d="M0 0 C0.66 0 1.32 0 2 0 C2 0.99 2 1.98 2 3 C3.32 3 4.64 3 6 3 C6 3.66 6 4.32 6 5 C4.68 5 3.36 5 2 5 C2 7.64 2 10.28 2 13 C3.32 13 4.64 13 6 13 C6 13.66 6 14.32 6 15 C4.33388095 15.042721 2.66617115 15.04063832 1 15 C-0.71584497 13.28415503 -0.40976422 10.96799522 -0.625 8.625 C-0.72039062 7.64789062 -0.81578125 6.67078125 -0.9140625 5.6640625 C-1 3 -1 3 0 0 Z " fill="#DAC8CA" transform="translate(1065,651)"/>
<path d="M0 0 C0.99 0.33 1.98 0.66 3 1 C4.6875 4.5625 4.6875 4.5625 6 8 C6.99 5.36 7.98 2.72 9 0 C9.66 0 10.32 0 11 0 C10.52309796 1.62566606 10.04340334 3.25051311 9.5625 4.875 C9.29566406 5.77992188 9.02882813 6.68484375 8.75390625 7.6171875 C8 10 8 10 7 12 C6.01 12 5.02 12 4 12 C2.68 8.04 1.36 4.08 0 0 Z " fill="#DED0CD" transform="translate(1002,654)"/>
<path d="M0 0 C1.32 0 2.64 0 4 0 C4 0.66 4 1.32 4 2 C3.01 2 2.02 2 1 2 C1 2.66 1 3.32 1 4 C1.99 4 2.98 4 4 4 C4 4.66 4 5.32 4 6 C3.01 6 2.02 6 1 6 C1 9.3 1 12.6 1 16 C0.34 16 -0.32 16 -1 16 C-1.22281874 14.08496326 -1.42771076 12.16783494 -1.625 10.25 C-1.74101563 9.18265625 -1.85703125 8.1153125 -1.9765625 7.015625 C-2.00029475 3.96207601 -1.61420985 2.53837579 0 0 Z " fill="#DAC8CB" transform="translate(946,650)"/>
<path d="M0 0 C0.66 0 1.32 0 2 0 C2 0.99 2 1.98 2 3 C3.32 3 4.64 3 6 3 C6 3.66 6 4.32 6 5 C4.68 5 3.36 5 2 5 C2 7.64 2 10.28 2 13 C3.32 13 4.64 13 6 13 C6 13.66 6 14.32 6 15 C1.125 14.125 1.125 14.125 0 13 C-0.26087055 11.3826026 -0.45964436 9.75493414 -0.625 8.125 C-0.72039063 7.24070312 -0.81578125 6.35640625 -0.9140625 5.4453125 C-1 3 -1 3 0 0 Z " fill="#DBC9CB" transform="translate(815,651)"/>
<path d="M0 0 C3.34373475 0.55728913 6.03312999 1.35173889 9 3 C9 3.66 9 4.32 9 5 C11.31 5.33 13.62 5.66 16 6 C16 6.99 16 7.98 16 9 C9.50686321 8.15526182 5.21484382 7.43850816 1 2 C0.67 1.34 0.34 0.68 0 0 Z " fill="#98479D" transform="translate(153,505)"/>
<path d="M0 0 C3.5 0.3125 3.5 0.3125 7 1 C7.33 1.66 7.66 2.32 8 3 C7.67 3.66 7.34 4.32 7 5 C4.36 5 1.72 5 -1 5 C-1 1 -1 1 0 0 Z " fill="#B178AE" transform="translate(904,654)"/>
<path d="M0 0 C3.5 0.3125 3.5 0.3125 7 1 C7.33 1.66 7.66 2.32 8 3 C7.67 3.66 7.34 4.32 7 5 C4.36 5 1.72 5 -1 5 C-1 1 -1 1 0 0 Z " fill="#B178AE" transform="translate(839,654)"/>
<path d="M0 0 C0 2 0 4 0 6 C0.33 6.66 0.66 7.32 1 8 C2.32 7.01 3.64 6.02 5 5 C3.84826645 7.46800047 2.95216435 9.04783565 1 11 C0.01 11 -0.98 11 -2 11 C-2.33 10.01 -2.66 9.02 -3 8 C-3.99 7.34 -4.98 6.68 -6 6 C-4.02 4.02 -2.04 2.04 0 0 Z " fill="#AF73AC" transform="translate(240,499)"/>
<path d="M0 0 C2.64 0.33 5.28 0.66 8 1 C8.99 4.3 9.98 7.6 11 11 C10.505 10.401875 10.01 9.80375 9.5 9.1875 C6.20397873 6.30348139 3.14385374 5.38128458 -1 4 C2.62326739 2.7922442 3.64146369 3.45688872 7 5 C7 4.01 7 3.02 7 2 C4.69 1.67 2.38 1.34 0 1 C0 0.67 0 0.34 0 0 Z " fill="#CBAAC0" transform="translate(162,509)"/>
<path d="M0 0 C0.99 0 1.98 0 3 0 C3 3.63 3 7.26 3 11 C2.01 11.33 1.02 11.66 0 12 C0 8.04 0 4.08 0 0 Z " fill="#C6A1BD" transform="translate(744,651)"/>
<path d="M0 0 C1.98 0 3.96 0 6 0 C6 0.66 6 1.32 6 2 C5.01 2.33 4.02 2.66 3 3 C2.67 5.97 2.34 8.94 2 12 C1.34 12 0.68 12 0 12 C0 8.04 0 4.08 0 0 Z " fill="#E1D6D0" transform="translate(1030,654)"/>
<path d="M0 0 C3.16115776 1.36983503 3.9927092 1.9890638 6 5 C6 5.66 6 6.32 6 7 C7.29233607 8.37310707 8.62437146 9.71034824 10 11 C4.70841026 9.59928507 2.22521956 6.14512755 -1 2 C-0.67 1.34 -0.34 0.68 0 0 Z " fill="#C8A6BE" transform="translate(149,500)"/>
<path d="M0 0 C1.98 0 3.96 0 6 0 C6 0.66 6 1.32 6 2 C5.01 2.33 4.02 2.66 3 3 C2.67 5.97 2.34 8.94 2 12 C1.34 12 0.68 12 0 12 C0 8.04 0 4.08 0 0 Z " fill="#DAC8CB" transform="translate(916,654)"/>
<path d="M0 0 C0.598125 0.20625 1.19625 0.4125 1.8125 0.625 C1.4825 1.945 1.1525 3.265 0.8125 4.625 C-0.8375 4.955 -2.4875 5.285 -4.1875 5.625 C-4.5175 4.305 -4.8475 2.985 -5.1875 1.625 C-2.1875 -0.375 -2.1875 -0.375 0 0 Z " fill="#8A2C93" transform="translate(236.1875,506.375)"/>
<path d="M0 0 C1.32 0.33 2.64 0.66 4 1 C4 2.32 4 3.64 4 5 C1.69 5.33 -0.62 5.66 -3 6 C-3.66 4.68 -4.32 3.36 -5 2 C-2.69 2.66 -0.38 3.32 2 4 C1.34 2.68 0.68 1.36 0 0 Z " fill="#D6C1C8" transform="translate(1042,660)"/>
<path d="M0 0 C0.66 0 1.32 0 2 0 C1.69106068 1.6256807 1.3777305 3.25052748 1.0625 4.875 C0.88847656 5.77992188 0.71445312 6.68484375 0.53515625 7.6171875 C0 10 0 10 -1 12 C-1.66 12 -2.32 12 -3 12 C-3.33 10.35 -3.66 8.7 -4 7 C-3.34 7 -2.68 7 -2 7 C-1.34 4.69 -0.68 2.38 0 0 Z " fill="#D7C3C9" transform="translate(897,654)"/>
<path d="M0 0 C1.65 0 3.3 0 5 0 C5.5625 1.9375 5.5625 1.9375 6 4 C5 5 5 5 2.4375 5.0625 C1.2309375 5.0315625 1.2309375 5.0315625 0 5 C0 3.35 0 1.7 0 0 Z " fill="#821A8D" transform="translate(859,653)"/>
<path d="M0 0 C0.99 0.33 1.98 0.66 3 1 C1.73058503 4.91402949 0.48832306 6.79072873 -3 9 C-3.66 7.35 -4.32 5.7 -5 4 C-4.34 3.67 -3.68 3.34 -3 3 C-2.67 3.33 -2.34 3.66 -2 4 C-1.67 3.34 -1.34 2.68 -1 2 C-0.67 1.34 -0.34 0.68 0 0 Z " fill="#7F168B" transform="translate(243,499)"/>
<path d="M0 0 C0.33 0 0.66 0 1 0 C1.33 1.65 1.66 3.3 2 5 C3.65 5.33 5.3 5.66 7 6 C7 5.34 7 4.68 7 4 C7.66 4 8.32 4 9 4 C8.34 5.32 7.68 6.64 7 8 C4.69 7.67 2.38 7.34 0 7 C-1.04449911 3.86650268 -0.93423645 3.01031744 0 0 Z " fill="#D6BFC7" transform="translate(785,658)"/>
<path d="M0 0 C0.99 0.33 1.98 0.66 3 1 C1.73427767 2.15147661 0.46222094 3.29599314 -0.8125 4.4375 C-1.52019531 5.07558594 -2.22789062 5.71367187 -2.95703125 6.37109375 C-5 8 -5 8 -8 9 C-6.40758592 4.70048197 -3.64459275 2.60328053 0 0 Z " fill="#9A4B9E" transform="translate(160,463)"/>
<path d="M0 0 C1.32 0.33 2.64 0.66 4 1 C4 4.3 4 7.6 4 11 C3.34 11 2.68 11 2 11 C1.93941406 10.37351562 1.87882813 9.74703125 1.81640625 9.1015625 C1.73261719 8.28429687 1.64882813 7.46703125 1.5625 6.625 C1.48128906 5.81289063 1.40007813 5.00078125 1.31640625 4.1640625 C1.10909886 1.95727195 1.10909886 1.95727195 0 0 Z " fill="#DED0CD" transform="translate(830,655)"/>
<path d="M0 0 C4 4 4 4 4 7 C2.35 6.67 0.7 6.34 -1 6 C-1.625 4.125 -1.625 4.125 -2 2 C-1.34 1.34 -0.68 0.68 0 0 Z " fill="#9A4A9E" transform="translate(183,523)"/>
<path d="M0 0 C0.66 1.32 1.32 2.64 2 4 C-0.31 4.33 -2.62 4.66 -5 5 C-5 3.68 -5 2.36 -5 1 C-3 0 -3 0 0 0 Z " fill="#831D8E" transform="translate(231,509)"/>
<path d="M0 0 C-1.5830577 4.2742558 -4.50568404 6.26531794 -8 9 C-8 6 -8 6 -6.7578125 4.39453125 C-5.94957031 3.61142578 -5.94957031 3.61142578 -5.125 2.8125 C-4.59132812 2.28269531 -4.05765625 1.75289063 -3.5078125 1.20703125 C-2 0 -2 0 0 0 Z " fill="#AD70AB" transform="translate(157,461)"/>
<path d="M0 0 C0.99 0.33 1.98 0.66 3 1 C3.625 3.875 3.625 3.875 4 7 C3.34 7.66 2.68 8.32 2 9 C2 7.68 2 6.36 2 5 C1.34 5 0.68 5 0 5 C-0.5625 3.0625 -0.5625 3.0625 -1 1 C-0.67 0.67 -0.34 0.34 0 0 Z " fill="#CBABC0" transform="translate(890,654)"/>
<path d="M0 0 C3 1 3 1 4.1875 3.1875 C5.07334979 6.25390311 5.14770318 8.82438155 5 12 C3.20931427 9.3139714 2.33944209 7.3373411 1.375 4.3125 C1.11460937 3.50425781 0.85421875 2.69601562 0.5859375 1.86328125 C0.39257812 1.24839844 0.19921875 0.63351562 0 0 Z " fill="#D9C6CA" transform="translate(1002,654)"/>
<path d="M0 0 C0.86625 0.556875 0.86625 0.556875 1.75 1.125 C1.75 2.775 1.75 4.425 1.75 6.125 C0.76 6.125 -0.23 6.125 -1.25 6.125 C-1.25 4.805 -1.25 3.485 -1.25 2.125 C-2.9 1.795 -4.55 1.465 -6.25 1.125 C-2.80384615 -1.09038462 -2.80384615 -1.09038462 0 0 Z " fill="#D8C4C9" transform="translate(865.25,651.875)"/>
<path d="M0 0 C0.66 0.33 1.32 0.66 2 1 C-0.97 3.97 -3.94 6.94 -7 10 C-7.33 9.34 -7.66 8.68 -8 8 C-5.33333333 5.33333333 -2.66666667 2.66666667 0 0 Z " fill="#862490" transform="translate(631,543)"/>
<path d="M0 0 C0.66 0 1.32 0 2 0 C0.25 3.875 0.25 3.875 -2 5 C-3.99960012 5.039992 -6.00047242 5.04346799 -8 5 C-5.77077045 2.77077045 -3.90864722 2.11871047 -1 1 C-0.67 0.67 -0.34 0.34 0 0 Z " fill="#D2B9C5" transform="translate(969,661)"/>
<path d="M0 0 C1.65 0 3.3 0 5 0 C5.33 0.99 5.66 1.98 6 3 C3.69 3 1.38 3 -1 3 C-0.67 2.01 -0.34 1.02 0 0 Z " fill="#85208F" transform="translate(1018,656)"/>
<path d="M0 0 C2.31 0 4.62 0 7 0 C6.67 0.99 6.34 1.98 6 3 C4.35 3 2.7 3 1 3 C0.67 2.01 0.34 1.02 0 0 Z " fill="#821C8D" transform="translate(1017,661)"/>
</svg>
