<?xml version="1.0" encoding="UTF-8"?>
<svg version="1.1" xmlns="http://www.w3.org/2000/svg" width="1200" height="1200">
<path d="M0 0 C1.36439932 1.23742055 2.70163962 2.50595668 4 3.8125 C8.14204027 7.76188724 12.2889828 7.89151952 17.81640625 8.4921875 C22.60985704 9.25678701 26.07219372 11.23741719 30 14 C30.93779297 14.63035156 30.93779297 14.63035156 31.89453125 15.2734375 C38.41631141 20.18963779 42.81485336 27.93839812 44 36 C44.93149468 44.09331441 43.11808207 51.70365651 38.3046875 58.3359375 C33.70129775 63.34934578 28.5922526 66.29588028 22 68 C20.68 68 19.36 68 18 68 C17.61714844 69.31677734 17.61714844 69.31677734 17.2265625 70.66015625 C12.1468491 84.49185993 0.55547496 92.39947658 -12.18359375 98.33203125 C-24.69977227 103.91663811 -40.19751173 103.79027857 -53 99 C-68.88342994 92.01431985 -79.64015811 81.22719972 -86.22265625 65.15234375 C-91.1507887 51.50711271 -90.37344579 35.94395941 -84.55859375 22.72265625 C-76.63677021 6.97090967 -64.60811393 -2.99722126 -48.00390625 -8.68359375 C-31.31422604 -13.2582698 -14.24206636 -9.21213023 0 0 Z M10 10 C10.54269531 10.90621094 11.08539063 11.81242187 11.64453125 12.74609375 C18.15950846 23.77832408 21.86041898 33.43334159 22.5625 46.3125 C22.60568359 47.05306641 22.64886719 47.79363281 22.69335938 48.55664062 C22.79870432 50.37091464 22.89978316 52.1854355 23 54 C26.92952661 51.7778299 29.32558703 49.66493629 32 46 C29.18803121 50.75871641 26.67686478 52.91752094 22 56 C22 56.99 22 57.98 22 59 C29.17643457 56.53950815 32.46691418 52.71937379 35.984375 46.21875 C39.10283366 39.40611724 38.45055293 32.55087312 36.16015625 25.5625 C33.19098302 19.00432612 28.53124533 14.3021607 21.9375 11.4375 C17.89631787 9.92457824 14.29622172 9.87905373 10 10 Z M39 29 C40 31 40 31 40 31 Z M40 32 C41 35 41 35 41 35 Z M40 37 C40.66 37.66 41.32 38.32 42 39 C42 38.34 42 37.68 42 37 C41.34 37 40.68 37 40 37 Z M39 40 C40.485 40.99 40.485 40.99 42 42 C42 41.34 42 40.68 42 40 C41.01 40 40.02 40 39 40 Z M39 42 C39.33 42.99 39.66 43.98 40 45 C40.66 45 41.32 45 42 45 C42 44.34 42 43.68 42 43 C41.01 42.67 40.02 42.34 39 42 Z M38 44 C37.34 45.98 36.68 47.96 36 50 C37.32 50.33 38.64 50.66 40 51 C40.33 49.35 40.66 47.7 41 46 C40.34 46 39.68 46 39 46 C38.67 45.34 38.34 44.68 38 44 Z M35 51 C34.01 52.485 34.01 52.485 33 54 C34.98 54.99 34.98 54.99 37 56 C37.66 54.68 38.32 53.36 39 52 C37.68 51.67 36.36 51.34 35 51 Z M32 54 C32 54.99 32 55.98 32 57 C32.99 57 33.98 57 35 57 C34.01 56.01 33.02 55.02 32 54 Z M30 56 C28.35 57.32 26.7 58.64 25 60 C25.33 61.32 25.66 62.64 26 64 C29.65316671 62.75023244 30.78065836 62.32901247 33 59 C32.01 58.01 31.02 57.02 30 56 Z M22 61 C22.33 62.32 22.66 63.64 23 65 C23.99 64.67 24.98 64.34 26 64 C25.34 64 24.68 64 24 64 C24 63.01 24 62.02 24 61 C23.34 61 22.68 61 22 61 Z M20 63 C20 63.99 20 64.98 20 66 C20.66 66 21.32 66 22 66 C21.67 65.01 21.34 64.02 21 63 C20.67 63 20.34 63 20 63 Z " fill="#7C0F89" transform="translate(207,448)"/>
<path d="M0 0 C1.04942276 -0.01283524 2.09884552 -0.02567047 3.18006897 -0.03889465 C4.32777267 -0.04628159 5.47547638 -0.05366852 6.65795898 -0.0612793 C7.83937973 -0.06935104 9.02080048 -0.07742279 10.23802185 -0.08573914 C12.75420656 -0.09961327 15.27041036 -0.11032041 17.78662109 -0.11816406 C21.58591339 -0.13519264 25.38429305 -0.17902628 29.18334961 -0.22338867 C48.63859786 -0.34862276 66.95797876 0.45350204 81.96655273 14.42700195 C86.13972392 18.8539975 88.8598439 23.53947242 91.09155273 29.17700195 C91.63875977 30.48217773 91.63875977 30.48217773 92.19702148 31.8137207 C95.24263395 43.26469158 94.61648132 58.65740109 89.09155273 69.17700195 C87.32588039 72.10282789 85.3656772 74.63175316 83.09155273 77.17700195 C82.37418945 78.06645508 82.37418945 78.06645508 81.64233398 78.97387695 C73.30257081 88.46902293 59.40321635 93.43385459 47.02087402 94.32623291 C41.77102917 94.53428704 36.53118667 94.45108822 31.27905273 94.36450195 C25.93717773 94.30262695 20.59530273 94.24075195 15.09155273 94.17700195 C15.09155273 111.99700195 15.09155273 129.81700195 15.09155273 148.17700195 C8.16155273 148.17700195 1.23155273 148.17700195 -5.90844727 148.17700195 C-5.93156495 129.02785507 -5.94942582 109.87871212 -5.96025944 90.72955418 C-5.96542266 81.83890369 -5.97246587 72.94826202 -5.98388672 64.05761719 C-5.99383274 56.31138969 -6.0003005 48.56516857 -6.00253576 40.81893486 C-6.00384301 36.71479277 -6.00692973 32.61066893 -6.01417732 28.50653267 C-6.02093626 24.64805555 -6.02306449 20.7896043 -6.02155495 16.93112183 C-6.02183133 15.51087745 -6.02383721 14.09063226 -6.02765274 12.67039299 C-6.03258793 10.73958325 -6.0308453 8.8087598 -6.02870178 6.87794495 C-6.02962358 5.79483819 -6.03054537 4.71173143 -6.03149509 3.59580326 C-5.81209432 -0.7170472 -3.83089509 0.04069994 0 0 Z M15.09155273 17.17700195 C15.09155273 37.30700195 15.09155273 57.43700195 15.09155273 78.17700195 C41.2819874 79.47898396 41.2819874 79.47898396 63.77905273 68.80200195 C70.84217503 60.78440367 72.60477398 54.00067726 72.40014648 43.52856445 C71.67050066 35.60405666 69.0722689 28.9694293 63.08374023 23.6105957 C55.57742254 18.20899062 47.82329647 17.04174681 38.72436523 17.0793457 C37.48058105 17.08184326 36.23679687 17.08434082 34.95532227 17.08691406 C33.39152832 17.09601807 31.82773437 17.10512207 30.21655273 17.11450195 C25.22530273 17.13512695 20.23405273 17.15575195 15.09155273 17.17700195 Z " fill="#EAE6D6" transform="translate(391.908447265625,479.822998046875)"/>
<path d="M0 0 C6.27 0 12.54 0 19 0 C20.77183869 1.77183869 20.12615315 4.33297266 20.12698364 6.73217773 C20.13121338 8.60001419 20.13121338 8.60001419 20.13552856 10.50558472 C20.13358397 11.89825454 20.13153578 13.29092422 20.12939453 14.68359375 C20.13074853 16.14022872 20.13252845 17.59686334 20.13470459 19.05349731 C20.13927912 23.02032936 20.13748928 26.98713552 20.1343255 30.95396805 C20.131802 35.09618451 20.13413941 39.23839869 20.13571167 43.38061523 C20.1375334 50.33805745 20.13512698 57.29548908 20.13037109 64.25292969 C20.12492847 72.30827528 20.12669112 80.36359557 20.1321975 88.41894054 C20.13672855 95.32253073 20.13737922 102.22611328 20.13475883 109.12970448 C20.13319601 113.25842008 20.13300243 117.38712377 20.13629532 121.51583862 C20.13917391 125.39649522 20.13719857 129.27711903 20.13140106 133.15777206 C20.1300734 134.58607809 20.13046769 136.01438685 20.13266373 137.4426918 C20.13537495 139.38440099 20.13138066 141.32611617 20.12698364 143.26782227 C20.1264181 144.90159569 20.1264181 144.90159569 20.12584114 146.56837463 C20 149 20 149 19 150 C16.7129148 150.17840434 14.41860008 150.26794131 12.125 150.3125 C10.86945313 150.34988281 9.61390625 150.38726563 8.3203125 150.42578125 C5 150 5 150 3.09765625 148.21484375 C1.60543076 145.20384071 1.31940909 142.32185458 1 139 C-2.50226746 139 -2.68159893 139.36509773 -5.0625 141.6875 C-14.24665574 149.90081475 -25.12867607 152.50327363 -37.20703125 152.3125 C-47.05750533 151.50092644 -55.39745951 147.29436286 -61.87109375 139.84765625 C-71.24715824 127.40672766 -73.18100224 114.395008 -73.25 99.25 C-73.270625 98.13367188 -73.29125 97.01734375 -73.3125 95.8671875 C-73.38491298 80.33460364 -68.24352809 66.71448455 -58 55 C-48.16539256 46.04289121 -36.69815087 43.14399416 -23.7109375 43.67578125 C-16.08535454 44.34201639 -10.4545371 47.07665392 -4 51 C-2.68 51.66 -1.36 52.32 0 53 C0 35.51 0 18.02 0 0 Z M-45.125 68.25 C-54.3211784 81.73772832 -54.94800231 98.81198612 -52.3125 114.625 C-50.33299626 122.35189044 -47.17630665 129.37932245 -40.35546875 133.87109375 C-32.58955698 137.59306473 -24.96589305 137.53792358 -16.828125 135.109375 C-9.57627853 132.26472804 -3.56724317 128.12709856 0 121 C0.73312397 117.2888341 0.74874447 113.65365611 0.734375 109.87890625 C0.74390198 108.82017807 0.75342896 107.76144989 0.76324463 106.67063904 C0.775371 104.4392317 0.77460865 102.20772141 0.76171875 99.97631836 C0.75004454 96.57547424 0.80230562 93.1795989 0.859375 89.77929688 C0.86326057 87.60417014 0.86338527 85.42903276 0.859375 83.25390625 C0.87981873 82.24534073 0.90026245 81.23677521 0.92132568 80.19764709 C0.81531393 73.69273156 -0.54935859 70.28091441 -5.09002686 65.59239197 C-17.09689082 55.58197177 -34.41745289 56.91259717 -45.125 68.25 Z " fill="#EAE6D6" transform="translate(786,478)"/>
<path d="M0 0 C1.88448368 1.61527173 3.70729739 3.21060846 5.40234375 5.0234375 C5.40234375 5.3534375 5.40234375 5.6834375 5.40234375 6.0234375 C4.80623291 6.02930374 4.21012207 6.03516998 3.59594727 6.04121399 C-2.63409483 6.10537512 -8.86363119 6.18985255 -15.09326172 6.28588867 C-17.4151338 6.31904903 -19.73708476 6.34710837 -22.05908203 6.36987305 C-25.40561393 6.40358222 -28.75142869 6.45590759 -32.09765625 6.51171875 C-33.12818115 6.51810867 -34.15870605 6.5244986 -35.22045898 6.53108215 C-41.34121546 6.65465791 -46.04656343 7.37088369 -51.59765625 10.0234375 C-53.27899913 12.38118345 -53.27899913 12.38118345 -54.59765625 15.0234375 C-56.55692688 16.7377993 -58.55645837 18.40748918 -60.59765625 20.0234375 C-63.85243752 22.94151726 -64.52763542 25.01215307 -64.8359375 29.46484375 C-65.12670304 40.21661988 -64.07659925 49.25051299 -56.4375 57.4921875 C-52.25500846 60.97315711 -47.15177719 63.20150986 -42 64.859375 C-38.945611 66.33938788 -37.98776276 67.96441057 -36.22265625 70.8359375 C-33.13458479 75.49501474 -30.4362853 78.23192074 -25.59765625 81.0234375 C-24.60765625 81.0234375 -23.61765625 81.0234375 -22.59765625 81.0234375 C-22.59765625 76.0734375 -22.59765625 71.1234375 -22.59765625 66.0234375 C-10.05765625 66.0234375 2.48234375 66.0234375 15.40234375 66.0234375 C10.9408145 79.40802526 1.75306947 88.08039559 -10.53515625 94.3359375 C-23.86826012 100.80686041 -38.22492636 102.33332478 -52.6640625 98.12109375 C-69.34475753 91.87971518 -80.32162183 81.35381756 -87.91015625 65.3984375 C-93.20879051 52.45885427 -93.50948994 37.15079374 -88.59765625 24.0234375 C-81.6119761 8.14000756 -70.82485597 -2.61672061 -54.75 -9.19921875 C-36.07490517 -15.94394447 -15.64904443 -11.90739321 0 0 Z " fill="#7C0F89" transform="translate(209.59765625,449.9765625)"/>
<path d="M0 0 C11.50496299 10.03163439 18.98299163 21.70134404 20.26318359 37.17578125 C21.29245353 54.9168883 18.83336774 70.78391528 7.2890625 84.921875 C-1.84909777 94.84330615 -14.02605378 99.59922298 -27.31396484 100.20361328 C-41.75246839 100.49342056 -55.24555477 96.96825146 -65.9375 86.75 C-77.20019804 74.3054139 -80.1159547 62.2461755 -80.125 45.9375 C-80.13724609 44.78701172 -80.14949219 43.63652344 -80.16210938 42.45117188 C-80.17291402 36.16646942 -79.81278673 30.75361578 -77.9375 24.75 C-77.68871094 23.89792969 -77.43992187 23.04585937 -77.18359375 22.16796875 C-72.79975967 10.07536363 -63.78422444 0.96702462 -52.2578125 -4.52734375 C-35.83007439 -11.37629688 -14.67629717 -10.70770661 0 0 Z M-52.5625 16.4375 C-61.62124956 27.98010025 -60.6803761 42.85369051 -59.9375 56.75 C-58.74061984 65.44858572 -55.30450327 72.30647393 -49.1875 78.5625 C-42.44097809 83.10342821 -34.05525937 85.61854924 -25.9453125 84.2421875 C-16.45909177 82.0387866 -10.69362895 78.66289191 -4.9375 70.75 C2.29191754 57.48252961 1.38062421 40.48192964 -2.6796875 26.43359375 C-5.24968656 18.90716792 -8.82797798 13.55540586 -15.87109375 9.6796875 C-28.76921427 3.87675237 -42.62368495 6.2620465 -52.5625 16.4375 Z " fill="#E9E7D6" transform="translate(907.9375,530.25)"/>
<path d="M0 0 C9.45191486 7.10408344 13.00908941 16.65292133 15 28 C15.38460279 33.71945768 15.35195751 39.41120435 15.29296875 45.140625 C15.28735972 46.76014814 15.28309582 48.37967645 15.28010559 49.99920654 C15.26875953 54.22095283 15.2393832 58.44237967 15.20599365 62.66400146 C15.17506936 66.98819663 15.16155293 71.31244441 15.14648438 75.63671875 C15.11450139 84.09130734 15.06181988 92.54557689 15 101 C8.4 101 1.8 101 -5 101 C-5.0093457 98.84098145 -5.01869141 96.68196289 -5.02832031 94.45751953 C-5.06221504 87.29286471 -5.11783271 80.12849413 -5.18390274 72.96406746 C-5.22327063 68.62381693 -5.25551112 64.28376603 -5.27099609 59.94335938 C-5.28623364 55.74799424 -5.32080325 51.55317834 -5.36830902 47.35805893 C-5.38305012 45.76428906 -5.39103681 44.17044075 -5.39188385 42.57660294 C-5.40241314 32.69105037 -5.77296907 23.88765023 -11.75 15.5625 C-17.28693094 11.71740907 -23.25128917 10.06870342 -30 11 C-38.84184226 13.00456529 -47.47918422 17.65175082 -53 25 C-53.59779602 27.83890055 -53.82302338 29.8342502 -53.77294922 32.65771484 C-53.78357895 33.39986237 -53.79420868 34.14200989 -53.80516052 34.90664673 C-53.83310459 37.34210986 -53.81918276 39.77538893 -53.8046875 42.2109375 C-53.8159432 43.90632003 -53.82982627 45.60168698 -53.84622192 47.29702759 C-53.88221787 51.74577701 -53.8826389 56.19383862 -53.87554932 60.6427002 C-53.87463556 65.18770607 -53.90750689 69.73245534 -53.9375 74.27734375 C-53.99132252 83.18496789 -54.00754888 92.09223118 -54 101 C-57.14581423 101.02888514 -60.29159469 101.04675923 -63.4375 101.0625 C-64.33533203 101.07087891 -65.23316406 101.07925781 -66.15820312 101.08789062 C-67.43920898 101.09272461 -67.43920898 101.09272461 -68.74609375 101.09765625 C-69.53685303 101.10289307 -70.3276123 101.10812988 -71.14233398 101.11352539 C-73 101 -73 101 -74 100 C-74.09527037 98.65927183 -74.1218877 97.31357497 -74.12025452 95.96946716 C-74.12162918 95.10143463 -74.12300385 94.2334021 -74.12442017 93.33906555 C-74.12082489 92.37953476 -74.11722961 91.42000397 -74.11352539 90.43139648 C-74.11367142 89.42663269 -74.11381744 88.4218689 -74.1139679 87.38665771 C-74.1132683 84.04811483 -74.10547374 80.70962695 -74.09765625 77.37109375 C-74.09579224 75.06323782 -74.09436826 72.75538149 -74.09336853 70.44752502 C-74.08954204 64.35982174 -74.07971065 58.27214214 -74.06866455 52.18444824 C-74.05845323 45.97778646 -74.05387151 39.77112087 -74.04882812 33.56445312 C-74.0380885 21.37629165 -74.02101052 9.18814779 -74 -3 C-71.30893093 -4.34553453 -69.12834578 -4.20594114 -66.125 -4.25 C-65.07570313 -4.27578125 -64.02640625 -4.3015625 -62.9453125 -4.328125 C-59.59491008 -3.95487062 -58.29586136 -3.44927146 -56 -1 C-55.171875 1.48046875 -55.171875 1.48046875 -54.75 4.1875 C-54.60046875 5.08855469 -54.4509375 5.98960937 -54.296875 6.91796875 C-54.14992188 7.94857422 -54.14992188 7.94857422 -54 9 C-53.56171875 8.56429687 -53.1234375 8.12859375 -52.671875 7.6796875 C-38.28261467 -5.83217891 -17.60659443 -10.09933819 0 0 Z " fill="#E9E6D6" transform="translate(677,527)"/>
<path d="M0 0 C7.60091755 6.21380649 12.71757717 14.38309322 14.2578125 24.15234375 C14.3448915 26.6770161 14.38443755 29.17270305 14.37133789 31.6965332 C14.37148392 32.4385347 14.37162994 33.18053619 14.3717804 33.94502258 C14.37108654 36.38525365 14.3633189 38.82540735 14.35546875 41.265625 C14.3536027 42.96241718 14.35217968 44.6592099 14.35118103 46.35600281 C14.3473706 50.81281025 14.33755293 55.26958488 14.32647705 59.72637939 C14.3162312 64.27786821 14.31167662 68.82936234 14.30664062 73.38085938 C14.29592931 82.30470188 14.27887063 91.22852008 14.2578125 100.15234375 C12.15476773 100.26034605 10.05014341 100.33793362 7.9453125 100.40234375 C6.77355469 100.44875 5.60179687 100.49515625 4.39453125 100.54296875 C1.2578125 100.15234375 1.2578125 100.15234375 -0.61450195 98.27050781 C-2.36726568 94.97824151 -2.95365807 91.79171035 -3.7421875 88.15234375 C-4.77666016 88.94898438 -4.77666016 88.94898438 -5.83203125 89.76171875 C-18.71075808 99.44284674 -30.50642565 103.43580318 -46.7421875 102.15234375 C-55.05696945 100.25674579 -61.0412119 95.80231077 -66.0546875 89.02734375 C-69.46766657 82.29041984 -70.45735542 74.74753453 -68.8046875 67.40234375 C-66.23029097 59.56624203 -60.96468646 54.28224719 -53.89453125 50.23828125 C-38.0051094 42.22147676 -22.16523149 40.95994204 -4.7421875 41.15234375 C-4.9450677 38.1485056 -5.17858623 35.15222613 -5.4296875 32.15234375 C-5.50993164 30.89357422 -5.50993164 30.89357422 -5.59179688 29.609375 C-6.1417602 23.44022115 -7.79689571 18.97857259 -11.7421875 14.15234375 C-17.22696395 10.00531765 -23.05867714 9.55061291 -29.7421875 10.15234375 C-36.54022399 11.71934877 -43.40081502 14.64631439 -48.9921875 18.83984375 C-51.0199067 20.36063315 -52.20220621 20.99840549 -54.7421875 21.15234375 C-59.28240382 19.22275181 -61.24777163 16.30970353 -63.7421875 12.15234375 C-60.0460729 3.55887731 -49.4926983 -0.55478911 -41.29296875 -3.82421875 C-28.19542995 -8.1165209 -11.60373358 -7.81847006 0 0 Z M-46.9296875 63.77734375 C-50.09053653 67.91914592 -50.26889982 72.10548211 -49.7421875 77.15234375 C-48.02930539 81.84023162 -45.90422193 84.41149181 -41.7421875 87.15234375 C-33.98098281 89.55879531 -26.10835824 88.25145483 -18.7421875 85.15234375 C-15.54377843 83.38279469 -12.58907976 81.44464661 -9.7421875 79.15234375 C-8.83726562 78.47558594 -7.93234375 77.79882812 -7 77.1015625 C-3.69742592 72.78764653 -4.18756207 69.11072819 -4.4296875 63.83984375 C-4.46352539 62.44282227 -4.46352539 62.44282227 -4.49804688 61.01757812 C-4.55676672 58.72750415 -4.63881892 56.440765 -4.7421875 54.15234375 C-18.52210524 53.69044707 -36.20732846 53.66594534 -46.9296875 63.77734375 Z " fill="#EAE7D6" transform="translate(562.7421875,527.84765625)"/>
<path d="M0 0 C3.51854846 2.52372077 6.11356177 5.10439938 8.625 8.625 C9.19476562 9.40101563 9.76453125 10.17703125 10.3515625 10.9765625 C15.71784656 20.81898872 15.3984052 30.92501304 15.29296875 41.8203125 C15.28736355 43.53237534 15.28309782 45.24444305 15.28010559 46.95651245 C15.26872949 51.43145365 15.23932586 55.90609609 15.20599365 60.38092041 C15.17513553 64.95963501 15.16156683 69.53839856 15.14648438 74.1171875 C15.11444819 83.07825523 15.06334092 92.03910263 15 101 C12.89695523 101.1080023 10.79233091 101.18558987 8.6875 101.25 C7.51574219 101.29640625 6.34398437 101.3428125 5.13671875 101.390625 C2 101 2 101 0.12768555 99.11816406 C-1.62507818 95.82589776 -2.21147057 92.6393666 -3 89 C-3.556875 89.45890625 -4.11375 89.9178125 -4.6875 90.390625 C-9.56539766 94.31271839 -14.22980608 97.56569944 -20 100 C-20.639375 100.2990625 -21.27875 100.598125 -21.9375 100.90625 C-30.85442738 104.55408393 -42.07457629 104.35403584 -51.125 101.3125 C-59.09446777 97.8765618 -63.5628805 92.99712265 -67 85 C-69.37976741 75.51086453 -67.99846815 68.44166442 -63.3125 59.9375 C-54.42421 48.64696946 -38.08396807 43.97622268 -24.25 42.3125 C-17.51944372 41.76795661 -10.7465178 41.91904179 -4 42 C-4.0889287 28.44960777 -4.0889287 28.44960777 -9.3203125 16.34765625 C-14.32531325 11.82743306 -19.96241103 10.51157479 -26.515625 10.6875 C-33.45643168 11.56055744 -39.46720434 14.54622407 -45.3125 18.25 C-48.18526617 20.03638783 -49.96168809 20.99204847 -53.3125 21.6875 C-57.1231949 20.71267107 -58.63606353 19.10688793 -61 16 C-61.39811231 14.01188086 -61.7409688 12.01097338 -62 10 C-55.62134961 5.08784307 -49.58291068 0.77816374 -42 -2 C-41.30261719 -2.29777344 -40.60523438 -2.59554687 -39.88671875 -2.90234375 C-27.24369417 -7.64074847 -11.73025905 -6.53592147 0 0 Z M-38 60 C-39.0725 60.45375 -40.145 60.9075 -41.25 61.375 C-45.05322602 63.62236083 -47.37190533 65.71132628 -48.5703125 70.078125 C-49.43248285 75.47127567 -48.90269661 79.22459589 -46 84 C-40.11093168 88.66217909 -35.28530125 89.61835119 -28 89 C-21.228996 87.67296681 -15.52396661 85.1103531 -10 81 C-8.94039062 80.34386719 -7.88078125 79.68773437 -6.7890625 79.01171875 C-4.69598242 77.249125 -4.06916302 76.34131667 -3.51953125 73.62890625 C-3.40919117 70.79275765 -3.47653143 68.02172685 -3.625 65.1875 C-3.65207031 64.20845703 -3.67914062 63.22941406 -3.70703125 62.22070312 C-3.77754352 59.81153379 -3.87601432 57.40691181 -4 55 C-15.62985035 54.61659834 -27.25878826 55.20481619 -38 60 Z " fill="#E9E6D5" transform="translate(1083,527)"/>
<path d="M0 0 C-0.11369211 2.45933991 -0.24042651 4.9167909 -0.375 7.375 C-0.42140625 8.42300781 -0.42140625 8.42300781 -0.46875 9.4921875 C-0.7734375 14.7734375 -0.7734375 14.7734375 -3 17 C-6.68473771 17.05231879 -10.31821251 16.94604446 -13.99609375 16.74609375 C-19.24635373 16.59807647 -22.71941286 17.40385146 -27.28662109 20.03173828 C-29 21 -29 21 -32 22 C-33.09996892 23.79187009 -33.09996892 23.79187009 -34 26 C-34.41378906 26.804375 -34.82757812 27.60875 -35.25390625 28.4375 C-35.90166016 29.7059375 -35.90166016 29.7059375 -36.5625 31 C-37.21412109 32.2684375 -37.21412109 32.2684375 -37.87890625 33.5625 C-39.82970806 37.80396456 -40.12050235 41.35947823 -40.09765625 46.02197266 C-40.09270142 47.8437352 -40.09270142 47.8437352 -40.08764648 49.70230103 C-40.07934814 51.00968231 -40.0710498 52.3170636 -40.0625 53.6640625 C-40.05809331 55.02118761 -40.05427696 56.37831475 -40.05102539 57.73544312 C-40.03961523 62.03199163 -40.02035979 66.3284858 -40 70.625 C-39.97641522 75.61096176 -39.95602947 80.59689286 -39.94406128 85.58289719 C-39.93756853 87.58047955 -39.92499344 89.57803912 -39.91235352 91.57559204 C-39.90739868 93.3878981 -39.90739868 93.3878981 -39.90234375 95.23681641 C-39.89448853 96.83754501 -39.89448853 96.83754501 -39.88647461 98.47061157 C-40 101 -40 101 -41 103 C-44.14581423 103.02888514 -47.29159469 103.04675923 -50.4375 103.0625 C-51.33533203 103.07087891 -52.23316406 103.07925781 -53.15820312 103.08789062 C-54.43920898 103.09272461 -54.43920898 103.09272461 -55.74609375 103.09765625 C-56.53685303 103.10289307 -57.3276123 103.10812988 -58.14233398 103.11352539 C-60 103 -60 103 -61 102 C-61.10603305 98.84460015 -61.14677393 95.71096627 -61.14526367 92.55493164 C-61.14862228 91.563134 -61.1519809 90.57133636 -61.15544128 89.54948425 C-61.16498286 86.25302904 -61.16689598 82.95662444 -61.16796875 79.66015625 C-61.17117905 77.3795113 -61.17454294 75.09886655 -61.17805481 72.81822205 C-61.18405408 68.03058393 -61.18589389 63.24296388 -61.18530273 58.45532227 C-61.18520105 52.30679937 -61.19885585 46.15839181 -61.21607494 40.00989628 C-61.22716854 35.29771894 -61.22922276 30.58556972 -61.22869301 25.87338066 C-61.22987702 23.60587606 -61.23432218 21.33837081 -61.24202538 19.07087898 C-61.25177235 15.90532371 -61.24896826 12.74002185 -61.24291992 9.57446289 C-61.24853943 8.62944916 -61.25415894 7.68443542 -61.25994873 6.71078491 C-61.25575424 5.85123703 -61.25155975 4.99168915 -61.24723816 4.10609436 C-61.24778293 3.35705369 -61.24832769 2.60801302 -61.24888897 1.83627415 C-61 0 -61 0 -59 -2 C-56.06640625 -2.30078125 -56.06640625 -2.30078125 -52.5625 -2.3125 C-50.83193359 -2.33763672 -50.83193359 -2.33763672 -49.06640625 -2.36328125 C-46 -2 -46 -2 -44.1640625 -0.9296875 C-42.40116661 1.99269695 -42.2140529 4.8206334 -41.8125 8.1875 C-41.65394531 9.45980469 -41.49539063 10.73210938 -41.33203125 12.04296875 C-41.16767578 13.50669922 -41.16767578 13.50669922 -41 15 C-40.505 14.175 -40.01 13.35 -39.5 12.5 C-30.46759761 -0.87429406 -15.39033009 -8.80448322 0 0 Z " fill="#EAE7D7" transform="translate(1010,525)"/>
<path d="M0 0 C157.08 0 314.16 0 476 0 C476 1.98 476 3.96 476 6 C318.92 6 161.84 6 0 6 C0 4.02 0 2.04 0 0 Z " fill="#B58A10" transform="translate(163,670)"/>
<path d="M0 0 C1.69271027 -0.01913956 1.69271027 -0.01913956 3.4196167 -0.03866577 C5.22912811 -0.04200424 5.22912811 -0.04200424 7.07519531 -0.04541016 C8.3303595 -0.05206696 9.58552368 -0.05872375 10.87872314 -0.06558228 C13.53159799 -0.07569486 16.18406285 -0.08126669 18.83691406 -0.08007812 C22.2103242 -0.07987548 25.58288673 -0.10713402 28.95609665 -0.14162254 C32.20409622 -0.16942441 35.45209309 -0.1680458 38.70019531 -0.17041016 C39.89843933 -0.18478119 41.09668335 -0.19915222 42.33123779 -0.21395874 C53.35407708 -0.15451833 61.44155207 2.83950885 69.88378906 9.93896484 C75.90816433 16.18108861 79.15400135 23.78306557 79.46582031 32.41552734 C79.30308773 41.30664392 75.92110555 48.28728593 69.73925781 54.53662109 C62.58696268 59.38764906 55.50320299 60.88386768 46.98925781 60.68115234 C46.0711734 60.67549255 45.15308899 60.66983276 44.20718384 60.66400146 C41.31366801 60.6418521 38.4214532 60.59169906 35.52832031 60.54052734 C33.55047378 60.52043452 31.57260758 60.50218867 29.59472656 60.48583984 C24.78043354 60.44205809 19.96709643 60.37318365 15.15332031 60.29052734 C15.48332031 65.24052734 15.81332031 70.19052734 16.15332031 75.29052734 C12.15332031 76.29052734 12.15332031 76.29052734 10.25878906 75.42724609 C6.19478615 72.35648219 3.4116794 69.40783489 0.65332031 65.10302734 C-2.59663681 60.11175371 -5.11469858 58.69838235 -10.84667969 57.29052734 C-7.22341229 56.08277155 -6.205216 56.74741607 -2.84667969 58.29052734 C-2.84667969 57.30052734 -2.84667969 56.31052734 -2.84667969 55.29052734 C-5.15667969 54.96052734 -7.46667969 54.63052734 -9.84667969 54.29052734 C-9.84667969 53.96052734 -9.84667969 53.63052734 -9.84667969 53.29052734 C-7.20667969 53.62052734 -4.56667969 53.95052734 -1.84667969 54.29052734 C-1.51796875 55.25152344 -1.51796875 55.25152344 -1.18261719 56.23193359 C1.07287446 62.38410797 3.6245905 66.55594618 8.15332031 71.29052734 C8.14171875 70.23091797 8.13011719 69.17130859 8.11816406 68.07958984 C8.10878556 66.69157077 8.09968542 65.30354979 8.09082031 63.91552734 C8.08244141 63.21685547 8.0740625 62.51818359 8.06542969 61.79833984 C8.04003906 56.51708984 8.04003906 56.51708984 9.15332031 54.29052734 C22.68332031 54.29052734 36.21332031 54.29052734 50.15332031 54.29052734 C50.15332031 54.62052734 50.15332031 54.95052734 50.15332031 55.29052734 C37.61332031 55.62052734 25.07332031 55.95052734 12.15332031 56.29052734 C12.81332031 56.29052734 13.47332031 56.29052734 14.15332031 56.29052734 C14.81332031 56.29052734 15.47332031 56.29052734 16.15332031 56.29052734 C16.64832031 56.78552734 16.64832031 56.78552734 17.15332031 57.29052734 C17.81332031 56.96052734 18.47332031 56.63052734 19.15332031 56.29052734 C19.48332031 56.62052734 19.81332031 56.95052734 20.15332031 57.29052734 C20.81332031 56.96052734 21.47332031 56.63052734 22.15332031 56.29052734 C22.48332031 56.62052734 22.81332031 56.95052734 23.15332031 57.29052734 C23.81332031 56.96052734 24.47332031 56.63052734 25.15332031 56.29052734 C25.48332031 56.62052734 25.81332031 56.95052734 26.15332031 57.29052734 C26.81332031 56.96052734 27.47332031 56.63052734 28.15332031 56.29052734 C28.48332031 56.62052734 28.81332031 56.95052734 29.15332031 57.29052734 C29.81332031 56.96052734 30.47332031 56.63052734 31.15332031 56.29052734 C31.48332031 56.62052734 31.81332031 56.95052734 32.15332031 57.29052734 C32.81332031 56.96052734 33.47332031 56.63052734 34.15332031 56.29052734 C34.48332031 56.62052734 34.81332031 56.95052734 35.15332031 57.29052734 C35.81332031 56.96052734 36.47332031 56.63052734 37.15332031 56.29052734 C37.48332031 56.62052734 37.81332031 56.95052734 38.15332031 57.29052734 C38.81332031 56.96052734 39.47332031 56.63052734 40.15332031 56.29052734 C40.48332031 56.62052734 40.81332031 56.95052734 41.15332031 57.29052734 C41.81332031 56.96052734 42.47332031 56.63052734 43.15332031 56.29052734 C43.48332031 56.62052734 43.81332031 56.95052734 44.15332031 57.29052734 C44.81332031 56.96052734 45.47332031 56.63052734 46.15332031 56.29052734 C46.48332031 56.62052734 46.81332031 56.95052734 47.15332031 57.29052734 C47.81332031 56.96052734 48.47332031 56.63052734 49.15332031 56.29052734 C49.48332031 56.62052734 49.81332031 56.95052734 50.15332031 57.29052734 C50.81332031 56.96052734 51.47332031 56.63052734 52.15332031 56.29052734 C52.15332031 56.95052734 52.15332031 57.61052734 52.15332031 58.29052734 C52.81332031 58.29052734 53.47332031 58.29052734 54.15332031 58.29052734 C54.64832031 57.30052734 54.64832031 57.30052734 55.15332031 56.29052734 C55.15332031 56.95052734 55.15332031 57.61052734 55.15332031 58.29052734 C55.81332031 58.29052734 56.47332031 58.29052734 57.15332031 58.29052734 C56.88655827 56.30561093 56.88655827 56.30561093 56.15332031 54.29052734 C54.66832031 53.79552734 54.66832031 53.79552734 53.15332031 53.29052734 C53.87777344 52.96181641 54.60222656 52.63310547 55.34863281 52.29443359 C63.80288924 48.13493943 67.77150193 43.70375093 71.52832031 35.16552734 C73.22009174 27.38337877 71.93534485 19.79586153 67.74707031 13.01318359 C63.47070998 7.59713289 58.75257947 5.07989821 52.15332031 3.29052734 C47.60914179 2.76936796 43.12157218 2.77548654 38.55175781 2.82958984 C37.27531403 2.83050629 35.99887024 2.83142273 34.68374634 2.83236694 C31.99889147 2.83838169 29.31544576 2.85186054 26.63085938 2.87890625 C23.21048705 2.91295198 19.79070595 2.92053138 16.37018394 2.91901588 C13.07648445 2.91969384 9.78290641 2.9373873 6.48925781 2.95458984 C5.27136566 2.95681549 4.05347351 2.95904114 2.79867554 2.96133423 C-3.42614947 3.03050077 -8.88943219 3.44869523 -14.84667969 5.29052734 C-11.05818954 0.6601505 -5.69253372 0.04397461 0 0 Z M74.15332031 21.29052734 C75.15332031 23.29052734 75.15332031 23.29052734 75.15332031 23.29052734 Z M75.15332031 24.29052734 C76.15332031 27.29052734 76.15332031 27.29052734 76.15332031 27.29052734 Z M75.15332031 29.29052734 C75.81332031 29.95052734 76.47332031 30.61052734 77.15332031 31.29052734 C77.15332031 30.63052734 77.15332031 29.97052734 77.15332031 29.29052734 C76.49332031 29.29052734 75.83332031 29.29052734 75.15332031 29.29052734 Z M74.15332031 32.29052734 C75.63832031 33.28052734 75.63832031 33.28052734 77.15332031 34.29052734 C77.15332031 33.63052734 77.15332031 32.97052734 77.15332031 32.29052734 C76.16332031 32.29052734 75.17332031 32.29052734 74.15332031 32.29052734 Z M74.15332031 34.29052734 C74.48332031 35.28052734 74.81332031 36.27052734 75.15332031 37.29052734 C75.81332031 37.29052734 76.47332031 37.29052734 77.15332031 37.29052734 C77.15332031 36.63052734 77.15332031 35.97052734 77.15332031 35.29052734 C76.16332031 34.96052734 75.17332031 34.63052734 74.15332031 34.29052734 Z M73.15332031 36.29052734 C72.49332031 38.27052734 71.83332031 40.25052734 71.15332031 42.29052734 C72.47332031 42.62052734 73.79332031 42.95052734 75.15332031 43.29052734 C75.48332031 41.64052734 75.81332031 39.99052734 76.15332031 38.29052734 C75.49332031 38.29052734 74.83332031 38.29052734 74.15332031 38.29052734 C73.82332031 37.63052734 73.49332031 36.97052734 73.15332031 36.29052734 Z M70.15332031 43.29052734 C69.16332031 44.77552734 69.16332031 44.77552734 68.15332031 46.29052734 C70.13332031 47.28052734 70.13332031 47.28052734 72.15332031 48.29052734 C72.81332031 46.97052734 73.47332031 45.65052734 74.15332031 44.29052734 C72.83332031 43.96052734 71.51332031 43.63052734 70.15332031 43.29052734 Z M67.15332031 46.29052734 C67.15332031 47.28052734 67.15332031 48.27052734 67.15332031 49.29052734 C68.14332031 49.29052734 69.13332031 49.29052734 70.15332031 49.29052734 C69.16332031 48.30052734 68.17332031 47.31052734 67.15332031 46.29052734 Z M65.15332031 48.29052734 C63.50332031 49.61052734 61.85332031 50.93052734 60.15332031 52.29052734 C60.48332031 53.61052734 60.81332031 54.93052734 61.15332031 56.29052734 C64.80648702 55.04075979 65.93397867 54.61953981 68.15332031 51.29052734 C67.16332031 50.30052734 66.17332031 49.31052734 65.15332031 48.29052734 Z M57.15332031 53.29052734 C57.48332031 54.61052734 57.81332031 55.93052734 58.15332031 57.29052734 C59.14332031 56.96052734 60.13332031 56.63052734 61.15332031 56.29052734 C60.49332031 56.29052734 59.83332031 56.29052734 59.15332031 56.29052734 C59.15332031 55.30052734 59.15332031 54.31052734 59.15332031 53.29052734 C58.49332031 53.29052734 57.83332031 53.29052734 57.15332031 53.29052734 Z " fill="#D6C0C8" transform="translate(171.8466796875,455.70947265625)"/>
<path d="M0 0 C2.64 0.33 5.28 0.66 8 1 C8.32871094 1.96099609 8.32871094 1.96099609 8.6640625 2.94140625 C10.91955415 9.09358063 13.47127019 13.26541883 18 18 C17.98839844 16.94039062 17.97679687 15.88078125 17.96484375 14.7890625 C17.95546524 13.40104342 17.94636511 12.01302245 17.9375 10.625 C17.92912109 9.92632813 17.92074219 9.22765625 17.91210938 8.5078125 C17.88671875 3.2265625 17.88671875 3.2265625 19 1 C32.53 1 46.06 1 60 1 C60 1.33 60 1.66 60 2 C47.46 2.33 34.92 2.66 22 3 C22.66 3 23.32 3 24 3 C24.66 3 25.32 3 26 3 C26.33 3.33 26.66 3.66 27 4 C27.66 3.67 28.32 3.34 29 3 C29.33 3.33 29.66 3.66 30 4 C30.66 3.67 31.32 3.34 32 3 C32.495 3.495 32.495 3.495 33 4 C33.66 3.67 34.32 3.34 35 3 C35.495 3.495 35.495 3.495 36 4 C36.66 3.67 37.32 3.34 38 3 C38.495 3.495 38.495 3.495 39 4 C39.66 3.67 40.32 3.34 41 3 C41.495 3.495 41.495 3.495 42 4 C42.66 3.67 43.32 3.34 44 3 C44.495 3.495 44.495 3.495 45 4 C45.66 3.67 46.32 3.34 47 3 C47.495 3.495 47.495 3.495 48 4 C48.66 3.67 49.32 3.34 50 3 C50.495 3.495 50.495 3.495 51 4 C51.66 3.67 52.32 3.34 53 3 C53.495 3.495 53.495 3.495 54 4 C54.66 3.67 55.32 3.34 56 3 C56.495 3.495 56.495 3.495 57 4 C57.66 3.67 58.32 3.34 59 3 C59.495 3.495 59.495 3.495 60 4 C60.66 3.67 61.32 3.34 62 3 C62 3.66 62 4.32 62 5 C62.66 5 63.32 5 64 5 C64 5.66 64 6.32 64 7 C51.13 7 38.26 7 25 7 C25.33 11.95 25.66 16.9 26 22 C22 23 22 23 20.10546875 22.13671875 C16.04146584 19.06595484 13.25835909 16.11730755 10.5 11.8125 C7.25004288 6.82122636 4.73198111 5.40785501 -1 4 C2.62326739 2.7922442 3.64146369 3.45688872 7 5 C7 4.01 7 3.02 7 2 C4.69 1.67 2.38 1.34 0 1 C0 0.67 0 0.34 0 0 Z " fill="#BB8BB5" transform="translate(162,509)"/>
<path d="M0 0 C0.99 0.99 1.98 1.98 3 3 C3.99 2.67 4.98 2.34 6 2 C5.09726265 8.58198374 1.07828247 12.54821729 -3.99609375 16.58984375 C-8.31233227 19.49257726 -11.81825819 20.67614114 -17 21 C-16.67 19.68 -16.34 18.36 -16 17 C-16 17.66 -16 18.32 -16 19 C-15.34 19 -14.68 19 -14 19 C-14.26676204 17.01508358 -14.26676204 17.01508358 -15 15 C-15.99 14.67 -16.98 14.34 -18 14 C-16.93072266 13.48953125 -16.93072266 13.48953125 -15.83984375 12.96875 C-9.12118234 9.56872754 -4.49753223 6.04787611 0 0 Z M-1 4 C-1.99 5.485 -1.99 5.485 -3 7 C-1.02 7.99 -1.02 7.99 1 9 C1.66 7.68 2.32 6.36 3 5 C1.68 4.67 0.36 4.34 -1 4 Z M-4 7 C-4 7.99 -4 8.98 -4 10 C-3.01 10 -2.02 10 -1 10 C-1.99 9.01 -2.98 8.02 -4 7 Z M-6 9 C-7.65 10.32 -9.3 11.64 -11 13 C-10.67 14.32 -10.34 15.64 -10 17 C-6.34683329 15.75023244 -5.21934164 15.32901247 -3 12 C-3.99 11.01 -4.98 10.02 -6 9 Z M-14 14 C-13.67 15.32 -13.34 16.64 -13 18 C-12.01 17.67 -11.02 17.34 -10 17 C-10.66 17 -11.32 17 -12 17 C-12 16.01 -12 15.02 -12 14 C-12.66 14 -13.32 14 -14 14 Z " fill="#E8E5D5" transform="translate(243,495)"/>
<path d="M0 0 C13.53 0 27.06 0 41 0 C41 0.33 41 0.66 41 1 C28.13 1 15.26 1 2 1 C2.66 2.98 3.32 4.96 4 7 C4.42134754 9.28359965 4.79659899 11.57619294 5.125 13.875 C5.29257813 15.02742187 5.46015625 16.17984375 5.6328125 17.3671875 C5.75398437 18.23601563 5.87515625 19.10484375 6 20 C4.35 19.67 2.7 19.34 1 19 C-2.86206897 5.72413793 -2.86206897 5.72413793 0 0 Z " fill="#C9A6BE" transform="translate(181,510)"/>
<path d="M0 0 C0.99 0 1.98 0 3 0 C3.66 1.65 4.32 3.3 5 5 C5.66 3.35 6.32 1.7 7 0 C8.32 0 9.64 0 11 0 C11.66 1.98 12.32 3.96 13 6 C13.66 4.02 14.32 2.04 15 0 C15.99 0 16.98 0 18 0 C17.01 3.96 16.02 7.92 15 12 C13.68 12 12.36 12 11 12 C10.67 10.02 10.34 8.04 10 6 C9.34 6 8.68 6 8 6 C7.67 7.98 7.34 9.96 7 12 C5.68 12 4.36 12 3 12 C2.01 8.04 1.02 4.08 0 0 Z " fill="#EAE8D7" transform="translate(882,654)"/>
<path d="M0 0 C2.09765625 0.4375 2.09765625 0.4375 4.16015625 2.9375 C4.46953125 3.7625 4.77890625 4.5875 5.09765625 5.4375 C2.67263991 4.96596905 0.28658364 4.49147926 -2.08984375 3.8125 C-3.99137868 3.22403641 -3.99137868 3.22403641 -5.90234375 4.4375 C-5.90234375 6.7475 -5.90234375 9.0575 -5.90234375 11.4375 C-3.59234375 11.7675 -1.28234375 12.0975 1.09765625 12.4375 C1.09765625 11.7775 1.09765625 11.1175 1.09765625 10.4375 C2.41765625 10.4375 3.73765625 10.4375 5.09765625 10.4375 C3.22265625 14.3125 3.22265625 14.3125 2.09765625 15.4375 C0.13671875 15.640625 0.13671875 15.640625 -2.27734375 15.6875 C-3.06882812 15.71328125 -3.8603125 15.7390625 -4.67578125 15.765625 C-6.90234375 15.4375 -6.90234375 15.4375 -8.66796875 14.203125 C-10.22443795 11.97678298 -10.30433795 10.63691952 -10.27734375 7.9375 C-10.28507813 7.1640625 -10.2928125 6.390625 -10.30078125 5.59375 C-9.24056765 -0.14387653 -4.96984903 -0.12929689 0 0 Z " fill="#EAE7D7" transform="translate(966.90234375,650.5625)"/>
<path d="M0 0 C0.90492187 0.02320313 1.80984375 0.04640625 2.7421875 0.0703125 C5.1553125 0.1321875 5.1553125 0.1321875 7.6171875 0.1953125 C7.6171875 4.1553125 7.6171875 8.1153125 7.6171875 12.1953125 C0.09765625 12.5859375 0.09765625 12.5859375 -2.3828125 12.1953125 C-4.21875 10.375 -4.21875 10.375 -5.3828125 8.1953125 C-5.12690893 3.93025303 -4.90200045 0.40180332 0 0 Z M0.6171875 2.1953125 C-1.02836949 3.42340341 -1.02836949 3.42340341 -2.3828125 5.1953125 C-2.15523519 7.35830461 -2.15523519 7.35830461 -1.3828125 9.1953125 C0.50897953 9.8767948 0.50897953 9.8767948 2.6171875 10.1953125 C3.2771875 9.5353125 3.9371875 8.8753125 4.6171875 8.1953125 C4.29677353 5.59250682 4.29677353 5.59250682 3.6171875 3.1953125 C2.6271875 2.8653125 1.6371875 2.5353125 0.6171875 2.1953125 Z " fill="#EAE7D6" transform="translate(1053.3828125,653.8046875)"/>
<path d="M0 0 C1.051875 0.01160156 1.051875 0.01160156 2.125 0.0234375 C2.82625 0.01570312 3.5275 0.00796875 4.25 0 C6.125 0.3984375 6.125 0.3984375 8.125 3.3984375 C8.125 4.7184375 8.125 6.0384375 8.125 7.3984375 C5.485 7.7284375 2.845 8.0584375 0.125 8.3984375 C1.445 8.3984375 2.765 8.3984375 4.125 8.3984375 C5.46664079 8.6965799 6.80351173 9.02086942 8.125 9.3984375 C6.125 12.3984375 6.125 12.3984375 4.25 12.796875 C3.198125 12.78527344 3.198125 12.78527344 2.125 12.7734375 C1.42375 12.78117188 0.7225 12.78890625 0 12.796875 C-1.875 12.3984375 -1.875 12.3984375 -3.875 9.3984375 C-4.57714944 0.97264426 -4.57714944 0.97264426 0 0 Z M1.125 2.3984375 C0.135 3.8834375 0.135 3.8834375 -0.875 5.3984375 C1.105 5.3984375 3.085 5.3984375 5.125 5.3984375 C4.465 4.4084375 3.805 3.4184375 3.125 2.3984375 C2.465 2.3984375 1.805 2.3984375 1.125 2.3984375 Z " fill="#EAE7D7" transform="translate(904.875,653.6015625)"/>
<path d="M0 0 C1.051875 0.01160156 1.051875 0.01160156 2.125 0.0234375 C2.82625 0.01570312 3.5275 0.00796875 4.25 0 C6.125 0.3984375 6.125 0.3984375 8.125 3.3984375 C8.125 4.7184375 8.125 6.0384375 8.125 7.3984375 C5.485 7.7284375 2.845 8.0584375 0.125 8.3984375 C1.445 8.3984375 2.765 8.3984375 4.125 8.3984375 C5.46664079 8.6965799 6.80351173 9.02086942 8.125 9.3984375 C6.125 12.3984375 6.125 12.3984375 4.25 12.796875 C3.198125 12.78527344 3.198125 12.78527344 2.125 12.7734375 C1.42375 12.78117188 0.7225 12.78890625 0 12.796875 C-1.875 12.3984375 -1.875 12.3984375 -3.875 9.3984375 C-4.57714944 0.97264426 -4.57714944 0.97264426 0 0 Z M1.125 2.3984375 C0.135 3.8834375 0.135 3.8834375 -0.875 5.3984375 C1.105 5.3984375 3.085 5.3984375 5.125 5.3984375 C4.465 4.4084375 3.805 3.4184375 3.125 2.3984375 C2.465 2.3984375 1.805 2.3984375 1.125 2.3984375 Z " fill="#EAE7D7" transform="translate(839.875,653.6015625)"/>
<path d="M0 0 C0.99 0 1.98 0 3 0 C3.33 3.63 3.66 7.26 4 11 C5.32 11 6.64 11 8 11 C8.33 7.37 8.66 3.74 9 0 C9.99 0 10.98 0 12 0 C12.05406122 1.93719378 12.09282025 3.87481921 12.125 5.8125 C12.14820313 6.89144531 12.17140625 7.97039063 12.1953125 9.08203125 C12 12 12 12 10 15 C8.125 15.3984375 8.125 15.3984375 6 15.375 C5.29875 15.38273438 4.5975 15.39046875 3.875 15.3984375 C2 15 2 15 0 12 C-0.1953125 9.08203125 -0.1953125 9.08203125 -0.125 5.8125 C-0.10695313 4.72582031 -0.08890625 3.63914062 -0.0703125 2.51953125 C-0.04710937 1.68808594 -0.02390625 0.85664062 0 0 Z " fill="#E9E7D5" transform="translate(735,651)"/>
<path d="M0 0 C0.99 0 1.98 0 3 0 C3.33 1.98 3.66 3.96 4 6 C4.66 5.34 5.32 4.68 6 4 C8.125 4.375 8.125 4.375 10 5 C9.01 6.32 8.02 7.64 7 9 C7.309375 9.598125 7.61875 10.19625 7.9375 10.8125 C9 13 9 13 10 16 C5.125 15.125 5.125 15.125 4 14 C3.67 14.66 3.34 15.32 3 16 C2.01 16 1.02 16 0 16 C0 10.72 0 5.44 0 0 Z " fill="#EBE8D7" transform="translate(797,650)"/>
<path d="M0 0 C0.99 0 1.98 0 3 0 C3 1.32 3 2.64 3 4 C4.11375 3.938125 5.2275 3.87625 6.375 3.8125 C8.169375 3.9053125 8.169375 3.9053125 10 4 C12.13586678 7.20380017 12.23132175 8.01939967 12.125 11.6875 C12.10695313 12.49574219 12.08890625 13.30398438 12.0703125 14.13671875 C12.03550781 15.05904297 12.03550781 15.05904297 12 16 C11.01 16 10.02 16 9 16 C8.67 13.36 8.34 10.72 8 8 C6.35 7.67 4.7 7.34 3 7 C3 9.97 3 12.94 3 16 C2.01 16 1.02 16 0 16 C0 10.72 0 5.44 0 0 Z " fill="#EAE7D5" transform="translate(823,650)"/>
<path d="M0 0 C7.01123596 -0.77902622 7.01123596 -0.77902622 10.0625 1.625 C11.31856608 4.80703406 10.92070253 6.74212952 10 10 C7.67471713 12.32528287 7.15334102 12.29511025 4 12.3125 C3.29875 12.32925781 2.5975 12.34601562 1.875 12.36328125 C1.25625 12.24339844 0.6375 12.12351562 0 12 C-2.31332486 8.53001271 -2.33957563 7.07490752 -2 3 C-1.34 2.01 -0.68 1.02 0 0 Z M3 2 C2.34 2.66 1.68 3.32 1 4 C1.32041397 6.60280568 1.32041397 6.60280568 2 9 C2.99 9.33 3.98 9.66 5 10 C6.64555699 8.77190909 6.64555699 8.77190909 8 7 C7.77242269 4.83700789 7.77242269 4.83700789 7 3 C5.10820797 2.3185177 5.10820797 2.3185177 3 2 Z " fill="#EAE7D5" transform="translate(1079,654)"/>
<path d="M0 0 C7.01123596 -0.77902622 7.01123596 -0.77902622 10.0625 1.625 C11.31856608 4.80703406 10.92070253 6.74212952 10 10 C7.67471713 12.32528287 7.15334102 12.29511025 4 12.3125 C3.29875 12.32925781 2.5975 12.34601562 1.875 12.36328125 C1.25625 12.24339844 0.6375 12.12351562 0 12 C-2.31332486 8.53001271 -2.33957563 7.07490752 -2 3 C-1.34 2.01 -0.68 1.02 0 0 Z M3 2 C2.34 2.66 1.68 3.32 1 4 C1.32041397 6.60280568 1.32041397 6.60280568 2 9 C2.99 9.33 3.98 9.66 5 10 C6.64555699 8.77190909 6.64555699 8.77190909 8 7 C7.77242269 4.83700789 7.77242269 4.83700789 7 3 C5.10820797 2.3185177 5.10820797 2.3185177 3 2 Z " fill="#EAE7D5" transform="translate(976,654)"/>
<path d="M0 0 C7.01123596 -0.77902622 7.01123596 -0.77902622 10.0625 1.625 C11.31856608 4.80703406 10.92070253 6.74212952 10 10 C7.67471713 12.32528287 7.15334102 12.29511025 4 12.3125 C3.29875 12.32925781 2.5975 12.34601562 1.875 12.36328125 C1.25625 12.24339844 0.6375 12.12351562 0 12 C-2.31332486 8.53001271 -2.33957563 7.07490752 -2 3 C-1.34 2.01 -0.68 1.02 0 0 Z M3 2 C2.34 2.66 1.68 3.32 1 4 C1.32041397 6.60280568 1.32041397 6.60280568 2 9 C2.99 9.33 3.98 9.66 5 10 C6.64555699 8.77190909 6.64555699 8.77190909 8 7 C7.77242269 4.83700789 7.77242269 4.83700789 7 3 C5.10820797 2.3185177 5.10820797 2.3185177 3 2 Z " fill="#EAE7D5" transform="translate(871,654)"/>
<path d="M0 0 C7.01123596 -0.77902622 7.01123596 -0.77902622 10.0625 1.625 C11.31856608 4.80703406 10.92070253 6.74212952 10 10 C7.67471713 12.32528287 7.15334102 12.29511025 4 12.3125 C3.29875 12.32925781 2.5975 12.34601562 1.875 12.36328125 C1.25625 12.24339844 0.6375 12.12351562 0 12 C-2.31332486 8.53001271 -2.33957563 7.07490752 -2 3 C-1.34 2.01 -0.68 1.02 0 0 Z M3 2 C2.34 2.66 1.68 3.32 1 4 C1.32041397 6.60280568 1.32041397 6.60280568 2 9 C2.99 9.33 3.98 9.66 5 10 C6.64555699 8.77190909 6.64555699 8.77190909 8 7 C7.77242269 4.83700789 7.77242269 4.83700789 7 3 C5.10820797 2.3185177 5.10820797 2.3185177 3 2 Z " fill="#EAE7D5" transform="translate(771,654)"/>
<path d="M0 0 C3.5 0.25 3.5 0.25 5.5 2.25 C5.625 4.875 5.625 4.875 5.5 7.25 C2.86 7.25 0.22 7.25 -2.5 7.25 C-2.17 7.91 -1.84 8.57 -1.5 9.25 C1.965 8.755 1.965 8.755 5.5 8.25 C4.84 9.57 4.18 10.89 3.5 12.25 C0.125 12.375 0.125 12.375 -3.5 12.25 C-5.5 10.25 -5.5 10.25 -5.765625 8.375 C-5.76046875 7.67375 -5.7553125 6.9725 -5.75 6.25 C-5.75515625 5.54875 -5.7603125 4.8475 -5.765625 4.125 C-5.23295792 0.36499707 -3.52956633 0.25211188 0 0 Z M-1.5 2.25 C-1.83 3.24 -2.16 4.23 -2.5 5.25 C-0.85 5.25 0.8 5.25 2.5 5.25 C2.17 4.26 1.84 3.27 1.5 2.25 C0.51 2.25 -0.48 2.25 -1.5 2.25 Z " fill="#EAE7D6" transform="translate(1020.5,653.75)"/>
<path d="M0 0 C6.8359375 -0.29296875 6.8359375 -0.29296875 9 0 C11 3 11 3 10.6875 5.625 C10 8 10 8 9 9 C7.00041636 9.04080783 4.99954746 9.04254356 3 9 C3 10.98 3 12.96 3 15 C2.01 15 1.02 15 0 15 C0 10.05 0 5.1 0 0 Z M3 2 C3 3.65 3 5.3 3 7 C4.65 6.34 6.3 5.68 8 5 C7.34 4.01 6.68 3.02 6 2 C5.01 2 4.02 2 3 2 Z " fill="#EAE7D5" transform="translate(857,651)"/>
<path d="M0 0 C1.9375 1.125 1.9375 1.125 3 3 C3.38976435 6.11811483 3.50422245 8.11019567 1.9375 10.875 C-1.1069286 12.64273274 -3.5631012 12.36823916 -7 12 C-8.9375 10.875 -8.9375 10.875 -10 9 C-10.38976435 5.88188517 -10.50422245 3.88980433 -8.9375 1.125 C-5.8930714 -0.64273274 -3.4368988 -0.36823916 0 0 Z M-5 2 C-5.66 2.66 -6.32 3.32 -7 4 C-6.67958603 6.60280568 -6.67958603 6.60280568 -6 9 C-4.10820797 9.6814823 -4.10820797 9.6814823 -2 10 C-1.34 9.34 -0.68 8.68 0 8 C-0.32041397 5.39719432 -0.32041397 5.39719432 -1 3 C-2.89179203 2.3185177 -2.89179203 2.3185177 -5 2 Z " fill="#EAE6D6" transform="translate(939,654)"/>
<path d="M0 0 C1.60875 -0.04125 3.2175 -0.0825 4.875 -0.125 C5.77992187 -0.14820313 6.68484375 -0.17140625 7.6171875 -0.1953125 C10 0 10 0 12 2 C12.1953125 4.3828125 12.1953125 4.3828125 12.125 7.125 C12.10695313 8.03507813 12.08890625 8.94515625 12.0703125 9.8828125 C12.04710937 10.58148437 12.02390625 11.28015625 12 12 C11.01 12 10.02 12 9 12 C8.67 9.36 8.34 6.72 8 4 C6.68 4 5.36 4 4 4 C3.67 6.64 3.34 9.28 3 12 C2.01 12 1.02 12 0 12 C0 8.04 0 4.08 0 0 Z " fill="#E9E6D6" transform="translate(1092,654)"/>
<path d="M0 0 C1.60875 -0.04125 3.2175 -0.0825 4.875 -0.125 C5.77992188 -0.14820313 6.68484375 -0.17140625 7.6171875 -0.1953125 C10 0 10 0 12 2 C12.1953125 4.3828125 12.1953125 4.3828125 12.125 7.125 C12.10695313 8.03507813 12.08890625 8.94515625 12.0703125 9.8828125 C12.04710937 10.58148437 12.02390625 11.28015625 12 12 C11.01 12 10.02 12 9 12 C8.67 9.36 8.34 6.72 8 4 C6.68 4 5.36 4 4 4 C3.67 6.64 3.34 9.28 3 12 C2.01 12 1.02 12 0 12 C0 8.04 0 4.08 0 0 Z " fill="#E9E6D6" transform="translate(989,654)"/>
<path d="M0 0 C1.60875 -0.04125 3.2175 -0.0825 4.875 -0.125 C5.77992188 -0.14820313 6.68484375 -0.17140625 7.6171875 -0.1953125 C10 0 10 0 12 2 C12.1953125 4.3828125 12.1953125 4.3828125 12.125 7.125 C12.10695313 8.03507813 12.08890625 8.94515625 12.0703125 9.8828125 C12.04710937 10.58148437 12.02390625 11.28015625 12 12 C11.01 12 10.02 12 9 12 C8.67 9.36 8.34 6.72 8 4 C6.68 4 5.36 4 4 4 C3.67 6.64 3.34 9.28 3 12 C2.01 12 1.02 12 0 12 C0 8.04 0 4.08 0 0 Z " fill="#E9E6D6" transform="translate(750,654)"/>
<path d="M0 0 C1.134375 0.020625 2.26875 0.04125 3.4375 0.0625 C4.0975 1.3825 4.7575 2.7025 5.4375 4.0625 C2.4675 3.5675 2.4675 3.5675 -0.5625 3.0625 C0.05625 3.35125 0.675 3.64 1.3125 3.9375 C3.4375 5.0625 3.4375 5.0625 5.4375 7.0625 C5.0625 9.6875 5.0625 9.6875 4.4375 12.0625 C1.7975 12.0625 -0.8425 12.0625 -3.5625 12.0625 C-3.8925 10.7425 -4.2225 9.4225 -4.5625 8.0625 C-1.5925 8.5575 -1.5925 8.5575 1.4375 9.0625 C-0.5425 8.0725 -2.5225 7.0825 -4.5625 6.0625 C-4.605221 4.39638095 -4.60313832 2.72867115 -4.5625 1.0625 C-3.5625 0.0625 -3.5625 0.0625 0 0 Z " fill="#EAE8D6" transform="translate(1041.5625,653.9375)"/>
<path d="M0 0 C0.33 0.66 0.66 1.32 1 2 C0.690625 2.804375 0.38125 3.60875 0.0625 4.4375 C-1.97980483 11.28522796 -1.89034962 18.46554557 0.93359375 25.08203125 C2.59263763 28.06587939 4.63359054 30.69844879 6.79296875 33.3359375 C8 35 8 35 8 37 C9.29233607 38.37310707 10.62437146 39.71034824 12 41 C5.91696398 39.38978458 2.83243756 35.06158028 -0.26953125 29.87890625 C-2.81249768 24.55035821 -3.37488894 19.56816596 -3.4375 13.75 C-3.45272705 12.73981812 -3.45272705 12.73981812 -3.46826172 11.70922852 C-3.38753205 7.11048023 -2.31102791 3.9477506 0 0 Z " fill="#CEB0C2" transform="translate(147,470)"/>
<path d="M0 0 C0.66 1.32 1.32 2.64 2 4 C-0.31 3.67 -2.62 3.34 -5 3 C-5.33 4.65 -5.66 6.3 -6 8 C-2.71023192 9.09658936 -1.28696233 8.79953138 2 8 C1.34 9.32 0.68 10.64 0 12 C-1.27875 12.061875 -2.5575 12.12375 -3.875 12.1875 C-4.59429688 12.22230469 -5.31359375 12.25710938 -6.0546875 12.29296875 C-6.69664062 12.19628906 -7.33859375 12.09960938 -8 12 C-10.31282587 8.53076119 -10.42478586 7.07794425 -10 3 C-7.7109263 -1.03954182 -4.21983723 -0.23885871 0 0 Z " fill="#EBE7D6" transform="translate(793,654)"/>
<path d="M0 0 C0.99 0 1.98 0 3 0 C3.99 1.98 4.98 3.96 6 6 C6.99 4.02 7.98 2.04 9 0 C9.99 0 10.98 0 12 0 C10.66666667 4 9.33333333 8 8 12 C5.6875 12 5.6875 12 3 11 C0.97872513 7.47856019 0 4.04735389 0 0 Z " fill="#EAE7D7" transform="translate(1002,654)"/>
<path d="M0 0 C0.99 0 1.98 0 3 0 C3 0.99 3 1.98 3 3 C4.32 3 5.64 3 7 3 C7 3.66 7 4.32 7 5 C5.68 5 4.36 5 3 5 C3.33 7.31 3.66 9.62 4 12 C4.99 12.33 5.98 12.66 7 13 C7 13.66 7 14.32 7 15 C5.02 15 3.04 15 1 15 C0.63355422 13.44033408 0.28239138 11.87707349 -0.0625 10.3125 C-0.25972656 9.44238281 -0.45695312 8.57226562 -0.66015625 7.67578125 C-1.02032279 4.83998724 -0.70909969 2.75210018 0 0 Z " fill="#E9E6D6" transform="translate(1064,651)"/>
<path d="M0 0 C0.99 0 1.98 0 3 0 C3 0.99 3 1.98 3 3 C4.32 3 5.64 3 7 3 C7 3.66 7 4.32 7 5 C5.68 5 4.36 5 3 5 C3 7.64 3 10.28 3 13 C4.32 13 5.64 13 7 13 C7 13.66 7 14.32 7 15 C5.00045254 15.04254356 2.99958364 15.04080783 1 15 C-0.71584497 13.28415503 -0.40976422 10.96799522 -0.625 8.625 C-0.72039063 7.64789062 -0.81578125 6.67078125 -0.9140625 5.6640625 C-1 3 -1 3 0 0 Z " fill="#EAE6D6" transform="translate(815,651)"/>
<path d="M0 0 C1.65 0 3.3 0 5 0 C5 0.66 5 1.32 5 2 C4.01 2.495 4.01 2.495 3 3 C3.66 3.33 4.32 3.66 5 4 C5 4.66 5 5.32 5 6 C4.01 6 3.02 6 2 6 C2 9.3 2 12.6 2 16 C1.01 16 0.02 16 -1 16 C-1.22281874 14.08496326 -1.42771076 12.16783494 -1.625 10.25 C-1.74101563 9.18265625 -1.85703125 8.1153125 -1.9765625 7.015625 C-2.00029475 3.96207601 -1.61420985 2.53837579 0 0 Z " fill="#E9E6D6" transform="translate(945,650)"/>
<path d="M0 0 C0.99 0 1.98 0 3 0 C3 5.28 3 10.56 3 16 C2.01 16 1.02 16 0 16 C0 10.72 0 5.44 0 0 Z " fill="#EAE7D6" transform="translate(764,650)"/>
<path d="M0 0 C3.34373475 0.55728913 6.03312999 1.35173889 9 3 C9 3.66 9 4.32 9 5 C11.31 5.33 13.62 5.66 16 6 C16 6.99 16 7.98 16 9 C9.50686321 8.15526182 5.21484382 7.43850816 1 2 C0.67 1.34 0.34 0.68 0 0 Z " fill="#98479D" transform="translate(153,505)"/>
<path d="M0 0 C1.98 0 3.96 0 6 0 C6 0.66 6 1.32 6 2 C5.01 2.495 5.01 2.495 4 3 C3.53348793 5.12576782 3.53348793 5.12576782 3.375 7.5625 C3.30023437 8.38878906 3.22546875 9.21507812 3.1484375 10.06640625 C3.09945312 10.70449219 3.05046875 11.34257813 3 12 C2.01 12 1.02 12 0 12 C0 8.04 0 4.08 0 0 Z " fill="#E9E6D5" transform="translate(916,654)"/>
<path d="M0 0 C1.98 0 3.96 0 6 0 C6 0.66 6 1.32 6 2 C5.525625 2.391875 5.05125 2.78375 4.5625 3.1875 C2.25334174 5.86612359 2.32445657 8.56076032 2 12 C1.34 12 0.68 12 0 12 C0 8.04 0 4.08 0 0 Z " fill="#E9E7D5" transform="translate(1030,654)"/>
<path d="M0 0 C2.8503026 3.20945602 3.43451699 5.49988548 3.6875 9.75 C3.75324219 10.73484375 3.81898438 11.7196875 3.88671875 12.734375 C3.92410156 13.48203125 3.96148437 14.2296875 4 15 C1 13 1 13 0 12 C-0.07244053 9.98035801 -0.08377188 7.95832876 -0.0625 5.9375 C-0.05347656 4.83277344 -0.04445312 3.72804688 -0.03515625 2.58984375 C-0.02355469 1.73519531 -0.01195312 0.88054688 0 0 Z " fill="#872591" transform="translate(182,512)"/>
<path d="M0 0 C3.16115776 1.36983503 3.9927092 1.9890638 6 5 C6 5.66 6 6.32 6 7 C7.29233607 8.37310707 8.62437146 9.71034824 10 11 C4.70841026 9.59928507 2.22521956 6.14512755 -1 2 C-0.67 1.34 -0.34 0.68 0 0 Z " fill="#C8A6BE" transform="translate(149,500)"/>
<path d="M0 0 C0.33 0.66 0.66 1.32 1 2 C-1.55398281 6.16204606 -3.95054353 9.22931926 -8 12 C-8.66 12 -9.32 12 -10 12 C-10 11.34 -10 10.68 -10 10 C-6.53846154 7 -6.53846154 7 -4 7 C-3.71125 6.401875 -3.4225 5.80375 -3.125 5.1875 C-2 3 -2 3 0 0 Z " fill="#E9E6D6" transform="translate(239,492)"/>
<path d="M0 0 C0.99 0.33 1.98 0.66 3 1 C1.73427767 2.15147661 0.46222094 3.29599314 -0.8125 4.4375 C-1.52019531 5.07558594 -2.22789062 5.71367187 -2.95703125 6.37109375 C-5 8 -5 8 -8 9 C-6.40758592 4.70048197 -3.64459275 2.60328053 0 0 Z " fill="#9A4B9E" transform="translate(160,463)"/>
<path d="M0 0 C0.66 0 1.32 0 2 0 C2 3.96 2 7.92 2 12 C1.34 12 0.68 12 0 12 C0 8.04 0 4.08 0 0 Z " fill="#EAE7D6" transform="translate(1072,654)"/>
<path d="M0 0 C-1.5830577 4.2742558 -4.50568404 6.26531794 -8 9 C-8 6 -8 6 -6.7578125 4.39453125 C-5.94957031 3.61142578 -5.94957031 3.61142578 -5.125 2.8125 C-4.59132812 2.28269531 -4.05765625 1.75289063 -3.5078125 1.20703125 C-2 0 -2 0 0 0 Z " fill="#AD70AB" transform="translate(157,461)"/>
<path d="M0 0 C0.66 0 1.32 0 2 0 C2 0.99 2 1.98 2 3 C1.34 3 0.68 3 0 3 C0 2.01 0 1.02 0 0 Z " fill="#EAE7D5" transform="translate(1072,650)"/>
<path d="M0 0 C0.99 0.33 1.98 0.66 3 1 C2.01 1 1.02 1 0 1 C0 0.67 0 0.34 0 0 Z " fill="#EBE6D6" transform="translate(233,508)"/>
<path d="M0 0 C0.99 0.495 0.99 0.495 2 1 C1.67 1.66 1.34 2.32 1 3 C0.67 2.01 0.34 1.02 0 0 Z " fill="#EAE6D5" transform="translate(236,506)"/>
<path d="M0 0 C0.99 0.495 0.99 0.495 2 1 C1.67 1.66 1.34 2.32 1 3 C0.67 2.01 0.34 1.02 0 0 Z " fill="#EAE6D6" transform="translate(242,500)"/>
<path d="M0 0 C0.66 0 1.32 0 2 0 C2 0.66 2 1.32 2 2 C1.34 2 0.68 2 0 2 C0 1.34 0 0.68 0 0 Z " fill="#E9E7D4" transform="translate(245,495)"/>
</svg>
